<svg width="4036" height="1363" xmlns="http://www.w3.org/2000/svg" xmlns:xlink="http://www.w3.org/1999/xlink" xml:space="preserve" overflow="hidden"><defs><clipPath id="clip0"><rect x="49" y="365" width="4036" height="1363"/></clipPath></defs><g clip-path="url(#clip0)" transform="translate(-49 -365)"><path d="M3509.03 850.839 3509.03 717.784C3509.03 714.587 3509.03 711.381 3509.28 708.174 3509.28 706.206 3511.49 703.989 3513.47 703.739 3515.67 703.452 3517.9 703.288 3520.12 703.249 3527.51 703 3535.17 703 3542.81 703 3563.52 703 3584.49 703 3605.2 703.249 3614.07 703.249 3622.74 703.49 3631.58 704.968 3643.4 707.067 3654.75 711.24 3665.12 717.294 3685.59 729.121 3697.42 746.862 3700.88 770.285 3703.71 788.489 3699.95 807.107 3690.27 822.777 3679.91 840.268 3664.42 851.116 3645.14 856.54 3641.45 857.519 3637.76 858.018 3634.06 858.757L3630.37 859.497C3629.87 859.746 3629.14 860.236 3629.14 860.725 3628.95 861.309 3629.04 861.945 3629.38 862.453 3630 863.236 3630.75 863.902 3631.6 864.421 3636.53 867.378 3640.23 871.573 3643.43 876.258 3648.12 882.91 3652.81 889.803 3657.28 896.706 3668.36 914.696 3680.22 932.196 3692.05 949.697 3695.01 953.882 3698.22 958.567 3701.42 962.512 3704.56 966.492 3708.02 970.201 3711.78 973.6 3719.14 980.71 3728.93 984.761 3739.15 984.938 3741.86 985.187 3744.82 985.427 3747.54 985.926 3748.86 986.015 3749.91 987.064 3750 988.384L3750 997.014C3749.92 998.929 3748.77 1000.64 3747.04 1001.45 3743.92 1002.92 3740.59 1003.91 3737.18 1004.41 3729.88 1005.1 3722.54 1005.19 3715.23 1004.66 3702.56 1003.52 3690.66 998.139 3681.44 989.373 3678.07 986.16 3674.94 982.702 3672.08 979.024 3668.9 975.08 3665.94 970.965 3663.21 966.698 3647.91 944.023 3632.62 921.108 3617.05 898.433 3615.08 895.227 3612.86 892.03 3610.59 889.064 3608.5 886.344 3606.19 883.792 3603.69 881.432 3598.01 875.398 3590.44 871.486 3582.24 870.344 3572.62 868.866 3562.76 868.866 3552.89 869.365 3552.64 869.365 3552.4 869.605 3552.15 869.605 3550.23 869.787 3548.65 871.18 3548.21 873.061 3547.96 874.539 3547.96 875.768 3547.71 876.997L3547.71 992.33C3547.46 993.559 3547.22 994.797 3546.97 996.026 3546.58 998.306 3544.6 999.97 3542.29 999.971L3514.92 999.971C3511.92 999.881 3509.47 997.54 3509.25 994.547 3509 991.84 3509 988.883 3509 986.167L3509 850.839ZM3547.74 785.531 3547.74 835.593C3547.74 838.55 3547.74 841.746 3547.99 844.953 3548.24 847.669 3549.72 849.148 3552.18 849.388 3553.91 849.388 3555.87 849.638 3557.85 849.638L3592.62 849.638C3595.82 849.638 3599.08 849.388 3602.24 849.148 3635.03 845.452 3662.9 816.854 3661.17 781.123 3660.44 759.687 3650.82 743.175 3632.07 732.078 3621.09 725.797 3608.72 722.328 3596.07 721.979 3582.51 721.729 3569.19 721.979 3555.63 721.979 3554.05 722.006 3552.49 722.17 3550.94 722.469 3549.72 722.958 3548.48 723.707 3548.48 725.185 3547.98 728.279 3547.73 731.41 3547.74 734.545Z" fill="#DEA53D" fill-rule="evenodd"/><path d="M3073.98 933.194 3073.98 987.142C3074.06 989.943 3073.9 992.745 3073.49 995.518 3073.22 997.805 3071.34 999.569 3069.04 999.701 3066.32 999.95 3063.85 999.95 3061.38 999.95L3044.37 999.95C3039.92 999.95 3038.19 997.983 3037.7 993.551 3037.45 991.325 3037.2 989.109 3036.95 987.142 3036.54 985.878 3035.31 985.059 3033.99 985.166 3031.76 985.905 3029.53 986.643 3027.55 987.391 3018.66 991.325 3009.27 994.28 2999.88 997.245 2986.16 1001.12 2972.08 1003.51 2957.86 1004.38 2945.25 1005.12 2932.65 1005.37 2920.04 1004.14 2903.97 1002.91 2888.16 999.95 2872.84 994.04 2830.82 978.028 2802.15 948.708 2787.32 906.312 2776.7 877.138 2774.22 845.631 2780.15 815.159 2788.8 771.313 2813.03 739.288 2852.33 718.594 2868.08 710.378 2885 704.643 2902.5 701.593 2925.82 697.463 2949.63 696.89 2973.11 699.894 2991.06 702.308 3008.5 707.544 3024.8 715.408 3033.23 719.65 3041.18 724.77 3048.52 730.682 3057.68 738.46 3065.38 747.803 3071.26 758.274 3071.7 759.132 3072.04 760.041 3072.25 760.98 3072.5 762.217 3071.26 764.434 3070.03 764.674 3069.29 764.674 3068.54 764.923 3068.05 764.923L3050 764.923C3046.54 764.923 3043.82 763.686 3042.34 760.491 3036.16 748.911 3026.53 741.024 3015.4 734.634 3000.66 726.572 2984.58 721.229 2967.94 718.862 2951.67 716.112 2935.07 715.948 2918.76 718.372 2876.74 725.021 2847.08 747.691 2830.27 786.855 2825.33 798.684 2822.6 811.003 2820.87 823.562 2818.03 844.202 2818.53 865.165 2822.36 885.646 2824.03 895.227 2826.85 904.573 2830.77 913.478 2843.86 945.014 2866.86 966.198 2898.98 977.529 2909.1 981.245 2919.65 983.647 2930.37 984.676 2948.42 986.403 2966.46 986.403 2984.26 983.199 3001.14 980.211 3017.31 974.115 3031.96 965.219L3034.93 962.994C3036.17 962.034 3036.97 960.616 3037.15 959.06 3037.35 957.509 3037.44 955.942 3037.4 954.378 3037.4 934.422 3037.65 914.716 3037.4 894.76 3037.41 892.602 3037.16 890.45 3036.66 888.351 3036.54 886.946 3035.35 885.871 3033.94 885.886 3031.51 885.401 3029.03 885.157 3026.54 885.156L3002.8 885.156C3000.33 885.114 2997.86 884.947 2995.4 884.657 2991.94 884.408 2990.21 882.192 2989.96 878.997 2989.91 876.774 2990 874.551 2990.21 872.339 2990.4 870.473 2991.82 868.965 2993.67 868.645 2996.44 868.168 2999.26 867.92 3002.07 867.906 3014.18 867.657 3026.3 867.657 3038.16 867.657 3046.81 867.657 3055.21 867.657 3063.87 867.906 3066.03 867.896 3068.19 868.143 3070.29 868.645 3072.02 868.894 3073.75 871.11 3073.75 872.837 3074 875.543 3074 878.498 3074 881.213Z" fill="#DEA53D" fill-rule="evenodd"/><path d="M2703.94 933.683 2703.94 985.666C2703.94 988.621 2703.94 991.327 2703.69 994.282 2703.59 997.281 2701.25 999.727 2698.25 999.953 2689.84 999.953 2681.2 999.953 2672.79 999.703 2670.5 999.621 2668.57 997.999 2668.09 995.769 2667.84 993.553 2667.59 991.327 2667.35 989.111 2666.85 985.666 2665.37 984.429 2661.17 985.906 2658.95 986.645 2656.47 987.882 2654.25 988.621 2641.66 993.898 2628.57 997.94 2615.19 1000.69 2597.64 1004.39 2579.59 1005.37 2561.55 1004.88 2549.84 1004.54 2538.18 1003.22 2526.69 1000.94 2506.47 997.002 2487.29 988.951 2470.34 977.29 2445.86 960.538 2428.81 937.867 2418.45 910.282 2409.19 885.685 2405.47 859.36 2407.57 833.172 2408.56 822.819 2410.04 812.476 2413.01 802.373 2423.64 765.434 2446.36 737.822 2480.25 719.592 2496.73 710.84 2514.5 704.77 2532.9 701.612 2555.99 697.468 2579.59 696.886 2602.86 699.885 2622.05 702.281 2640.64 708.126 2657.73 717.136 2663.91 720.3 2669.78 724.009 2675.28 728.218 2685.92 736.104 2694.08 745.958 2700.75 757.289 2701.25 758.517 2701.74 759.505 2702.23 760.734 2702.48 761.971 2701.25 764.427 2700.01 764.677 2699.52 764.677 2698.77 764.926 2698.27 764.926L2678.26 764.926C2675.98 764.987 2673.87 763.742 2672.82 761.722 2666.39 748.664 2655.51 740.288 2643.17 733.639 2630.84 727.081 2617.59 722.429 2603.86 719.842 2581.85 715.659 2559.86 715.409 2537.86 720.581 2505.71 727.969 2481.49 746.198 2465.68 775.519 2461.88 782.407 2458.81 789.675 2456.53 797.202 2446.39 831.685 2446.14 866.177 2456.03 900.632 2461.72 920.099 2471.36 937.091 2485.94 951.423 2498.36 963.268 2513.22 972.264 2529.49 977.78 2539.34 981.184 2549.53 983.498 2559.89 984.678 2577.93 986.405 2596.03 986.405 2613.79 983.45 2630.83 980.495 2646.66 974.086 2661.49 965.46 2662.82 964.699 2664.06 963.791 2665.19 962.754 2666.03 961.803 2666.69 960.72 2667.17 959.55 2667.45 958.005 2667.62 956.439 2667.66 954.868L2667.66 895.248C2667.66 894.02 2667.42 892.792 2667.42 891.554 2666.92 886.872 2665.43 885.394 2660.74 885.394 2652.58 885.154 2644.18 885.154 2636.02 885.154 2632.81 885.154 2629.84 885.154 2626.63 884.905 2625.34 884.807 2624.09 884.472 2622.92 883.917 2621.46 883.338 2620.42 882.024 2620.2 880.472 2620 880.18 2619.92 879.831 2619.96 879.484 2619.22 869.381 2620.7 867.904 2630.83 867.904 2651.59 867.654 2672.36 867.654 2693.37 867.654 2695.35 867.904 2697.08 867.904 2699.05 868.153 2701.65 868.555 2703.6 870.711 2703.75 873.325 2703.75 876.03 2704 878.995 2704 881.701Z" fill="#DEA53D" fill-rule="evenodd"/><path d="M2048 848.271 2048 712.809C2048 709.351 2048 705.892 2048.25 702.443 2048.39 700.963 2049.7 699.874 2051.18 700.012 2051.63 700.054 2052.06 700.209 2052.44 700.464 2054.2 701.813 2055.84 703.301 2057.37 704.912 2066.75 713.79 2075.87 722.917 2085.25 732.054L2275.42 919.331C2277.26 921.429 2279.24 923.406 2281.34 925.249 2282.1 925.911 2282.92 926.49 2283.8 926.979 2284.54 927.478 2286.76 926.488 2287.01 925.499 2287.01 924.269 2287.5 923.03 2287.5 921.8L2287.5 719.218C2287.5 715.769 2287.5 712.31 2287.75 708.861 2288 705.161 2290.22 703.182 2293.92 702.933 2296.47 702.888 2299.02 702.971 2301.56 703.182 2304.18 703.326 2306.34 705.282 2306.74 707.871 2306.95 709.093 2307.03 710.332 2306.99 711.57L2306.99 998.547C2306.96 999.473 2306.81 1000.39 2306.5 1001.27 2306.25 1002.5 2304.28 1003.49 2303.54 1002.75 2302.69 1002.31 2301.86 1001.81 2301.07 1001.27 2299.1 999.287 2297.12 997.317 2294.9 995.347L2081.3 784.609C2078.59 781.9 2075.87 779.43 2072.91 776.711 2072.16 776.237 2071.32 775.904 2070.45 775.731 2069.95 775.731 2068.97 775.972 2068.72 776.471 2068.24 777.646 2067.99 778.901 2067.98 780.17 2067.73 783.869 2067.73 787.568 2067.73 791.517L2067.73 984.731C2067.73 988.43 2067.49 992.129 2067.24 996.078 2067.02 998.023 2065.48 999.557 2063.54 999.777L2052.19 999.777C2050.71 999.777 2048.49 997.558 2048.25 995.828 2048.25 994.589 2048 993.359 2048 992.129L2048 848.271Z" fill="#DEA53D" fill-rule="evenodd"/><path d="M1986 1257.88C1986 1218.78 1986 1179.44 1986.25 1140.35 1986.25 1137.13 1986.25 1133.88 1986.49 1130.7 1986.99 1128.53 1988.73 1126.88 1990.92 1126.49 1992.79 1126.22 1994.68 1126.05 1996.57 1126L2076.73 1126C2082.75 1126.07 2088.75 1126.65 2094.68 1127.73 2105 1129.33 2114.92 1132.85 2123.94 1138.12 2140.41 1147.53 2150.71 1161.39 2155.41 1179.94 2160.82 1201.72 2154.18 1230.18 2135.74 1247.01 2127.76 1254.67 2117.93 1260.12 2107.23 1262.84 2104.58 1263.74 2101.87 1264.4 2099.11 1264.82 2097.85 1265.01 2096.61 1265.34 2095.42 1265.81 2094.62 1266.12 2094 1266.75 2093.7 1267.54 2093.47 1268.16 2093.67 1268.86 2094.19 1269.27 2101.58 1274.47 2106.49 1281.9 2111.4 1289.32 2115.09 1295.01 2118.78 1300.95 2122.72 1306.9 2132.06 1321.25 2141.65 1335.85 2151.23 1350.2 2154.69 1355.5 2158.64 1360.45 2163.04 1365.01 2170.9 1373.17 2180.24 1377.63 2191.56 1377.87 2192.53 1378.07 2193.52 1378.16 2194.51 1378.12 2197.46 1378.12 2199.68 1379.85 2199.92 1383.32 2200.08 1385.22 2200 1387.13 2199.68 1389.01 2199.44 1390.97 2198.1 1392.6 2196.23 1393.21 2193.28 1393.96 2190.33 1394.95 2187.13 1395.44 2180.84 1396.19 2174.48 1396.19 2168.2 1395.44 2157.8 1394.43 2148.03 1389.99 2140.41 1382.82 2136.9 1379.66 2133.7 1376.18 2130.83 1372.43 2127.99 1369.05 2125.36 1365.49 2122.96 1361.79 2109.43 1341.49 2095.91 1321.21 2082.38 1301.16 2079.93 1297.46 2077.47 1293.76 2074.77 1290.27 2067.14 1280.38 2057.06 1275.18 2044.77 1274.44 2038.62 1274.19 2032.23 1274.44 2026.08 1274.44 2022.64 1274.69 2020.91 1276.42 2020.67 1279.88 2020.43 1283.34 2020.42 1286.81 2020.42 1290.27L2020.42 1375.89C2020.42 1378.61 2020.42 1381.58 2020.17 1384.3 2020.16 1385.57 2019.92 1386.83 2019.44 1388 2018.74 1389.42 2017.5 1390.48 2016 1390.97 2015.36 1391.17 2014.7 1391.25 2014.04 1391.22L1992.4 1391.22C1988.95 1391.22 1986.74 1388.99 1986.25 1385.27 1986.29 1383.04 1986.2 1380.81 1986 1378.59L1986 1257.88ZM2020.42 1199.73 2020.42 1199.73 2020.42 1242.59C2020.42 1245.31 2020.42 1248.28 2020.67 1251.01 2020.67 1255.46 2022.15 1256.94 2026.08 1256.94 2039.11 1257.19 2051.93 1257.44 2064.93 1256.94 2077.33 1256.46 2089.24 1251.95 2098.86 1244.07 2117.55 1228.73 2124.43 1208.69 2119.76 1184.93 2118.04 1175.28 2113.12 1167.12 2106.24 1160.18 2098.93 1153.16 2089.95 1148.12 2080.16 1145.54 2073.87 1143.65 2067.34 1142.74 2060.77 1142.82 2050.94 1142.82 2041.1 1142.57 2031.52 1142.82 2020.7 1142.82 2020.44 1143.06 2020.44 1154.2Z" fill="#DEA53D" fill-rule="evenodd"/><path d="M3377.06 1257.37 3377.06 1140.05C3377.06 1136.6 3377.31 1133.14 3377.55 1129.7 3377.48 1128.13 3378.7 1126.81 3380.26 1126.74 3380.35 1126.74 3380.42 1126.74 3380.51 1126.74 3382.94 1126.25 3385.43 1126 3387.92 1126L3467.61 1126C3474.24 1126.05 3480.84 1126.71 3487.35 1127.97 3498.25 1129.67 3508.67 1133.62 3517.96 1139.56 3533.01 1148.92 3542.38 1161.98 3546.83 1178.99 3552.74 1202.16 3545.34 1230.26 3527.35 1246.77 3517.71 1255.49 3505.84 1261.38 3493.04 1263.78 3490.57 1264.27 3488.1 1265.01 3485.62 1265.5 3484.89 1265.75 3484.39 1267.48 3484.89 1267.97 3485.13 1268.22 3485.38 1268.71 3485.62 1268.71 3492.53 1273.39 3497.22 1280.05 3501.91 1286.94 3505.11 1292.12 3508.32 1297.05 3511.53 1301.98 3521.4 1316.77 3531.01 1331.56 3540.64 1346.35 3542.87 1349.55 3545.08 1352.51 3547.31 1355.47 3549.28 1357.93 3551.25 1360.39 3553.48 1362.86 3561.62 1371.73 3571.73 1376.91 3584.32 1377.15 3585.56 1377.1 3586.8 1377.2 3588.03 1377.4 3589.87 1377.97 3591.28 1379.47 3591.74 1381.35 3591.93 1381.9 3592.02 1382.48 3591.98 1383.07 3592.23 1388.98 3590.25 1392.19 3584.56 1393.18 3572.97 1395.64 3561.38 1395.89 3549.78 1392.19 3542.76 1390.21 3536.38 1386.48 3531.23 1381.35 3528.08 1378.32 3525.12 1375.12 3522.35 1371.73 3520.13 1369.02 3518.15 1366.06 3516.19 1363.1 3502.61 1343.39 3489.29 1323.42 3475.97 1303.71L3468.55 1292.62C3466.81 1290.4 3464.84 1288.18 3463.11 1286.2 3457.34 1279.83 3449.46 1275.72 3440.91 1274.62 3432.73 1273.52 3424.46 1273.27 3416.24 1273.88 3413.94 1274.02 3412.06 1275.79 3411.79 1278.07 3411.55 1281.53 3411.55 1284.97 3411.55 1288.42L3411.55 1375.43C3411.55 1378.39 3411.55 1381.1 3411.3 1384.06 3411.15 1385.28 3410.74 1386.46 3410.07 1387.5 3409.58 1388.49 3408.34 1389.23 3407.35 1389.97 3407.11 1389.97 3406.62 1390.22 3406.37 1390.22L3382.68 1390.22C3382.08 1390.17 3381.5 1390 3380.96 1389.72 3379.09 1389.35 3377.62 1387.89 3377.25 1386.02 3377.25 1384.3 3377 1382.83 3377 1381.1L3377 1257.37ZM3411.6 1199.69 3411.6 1199.69 3411.6 1246.03C3411.64 1248.51 3411.8 1250.97 3412.09 1253.43 3412.34 1254.67 3413.32 1255.64 3414.56 1255.89 3415.74 1256.37 3417 1256.62 3418.27 1256.63L3432.58 1256.63C3440 1256.63 3447.63 1256.88 3455.28 1256.39 3484.15 1254.91 3508.08 1234.2 3512.27 1205.37 3515.88 1183.61 3505.29 1161.96 3485.87 1151.39 3477.13 1146.17 3467.19 1143.28 3457 1143.01 3444.18 1142.76 3431.34 1142.76 3418.27 1142.76 3417.02 1142.8 3415.77 1142.97 3414.56 1143.26 3413.29 1143.62 3412.33 1144.67 3412.09 1145.96 3411.84 1148.67 3411.6 1151.63 3411.6 1154.35Z" fill="#DEA53D" fill-rule="evenodd"/><path d="M4062.08 999.982 4046.82 999.982C4044.59 999.888 4042.59 998.557 4041.65 996.529 4039.93 993.816 4038.69 990.854 4037.22 988.141 4015.31 941.039 3993.4 893.854 3971.48 846.585 3958.44 818.97 3945.6 791.105 3932.83 763.481 3931.6 761.269 3930.62 759.047 3929.38 756.575 3928.99 755.782 3928.49 755.038 3927.91 754.363 3927.17 752.881 3924.71 752.631 3923.97 754.112 3922.74 756.575 3921.51 759.047 3920.27 761.759 3909.93 785.681 3899.84 809.843 3889.49 833.764 3867.31 885.562 3845.32 937.188 3823.51 988.641 3822.28 991.594 3820.8 994.307 3819.33 997.269 3818.38 998.965 3816.59 1000.01 3814.65 999.982 3810.95 999.982 3807.02 999.732 3803.33 999.732 3801.85 999.732 3800.62 997.519 3801.11 996.029 3802.1 993.557 3803.08 990.844 3804.07 988.132 3816.38 959.036 3828.69 930.18 3840.75 901.112 3867.09 839.21 3893.27 777.312 3919.31 715.416L3921.53 710.232C3924.48 703.326 3924.73 703.086 3931.87 703.086 3934.99 702.917 3938.12 702.997 3941.22 703.326 3944.17 703.394 3946.83 705.109 3948.12 707.77 3949.1 709.741 3949.84 711.713 3950.83 713.685 3993.17 804.939 4035.6 896.103 4078.11 987.179 4079.34 990.132 4080.57 992.853 4081.81 995.807 4082.38 997.306 4081.63 998.986 4080.13 999.558 4079.8 999.685 4079.45 999.75 4079.1 999.75 4073.43 1000 4067.78 1000 4062.11 1000Z" fill="#DEA53D" fill-rule="evenodd"/><path d="M1939.22 999.873 1923.93 999.873C1920.72 999.873 1918.75 998.401 1917.27 995.439 1916.04 992.977 1914.8 990.256 1913.57 987.794 1878.8 912.837 1843.85 837.961 1808.75 763.165 1807.43 760.003 1805.86 756.95 1804.06 754.038 1803.32 752.557 1800.85 752.807 1800.11 754.288 1798.63 757.25 1796.91 760.453 1795.67 763.656 1785.07 788.564 1774.21 813.463 1763.61 838.371 1742.64 887.688 1721.6 937.002 1700.46 986.312 1698.98 989.765 1697.5 993.218 1695.77 996.67 1695.11 998.213 1693.72 999.324 1692.07 999.632 1687.73 1000.12 1683.35 1000.12 1679 999.632 1678.01 999.382 1676.78 997.66 1677.03 996.67 1677.66 994.495 1678.4 992.354 1679.25 990.256 1684.18 978.426 1689.11 966.588 1694.29 954.749 1728.09 874.856 1761.88 794.966 1795.67 715.079 1796.84 712.139 1798.16 709.26 1799.62 706.453 1800.35 704.614 1802.08 703.366 1804.06 703.25 1808.25 703 1812.69 703 1817.13 703 1820.59 703.25 1823.05 704.721 1824.53 708.174 1825.52 710.396 1826.75 712.617 1827.74 714.839 1869.92 805.549 1912.18 896.204 1954.52 986.803 1955.65 989.04 1956.64 991.346 1957.48 993.708 1957.9 994.547 1958.07 995.488 1957.97 996.42 1957.97 997.901 1956.74 999.632 1955.26 999.632 1949.83 999.873 1944.4 999.873 1939.22 999.873Z" fill="#DEA53D" fill-rule="evenodd"/><path d="M3399.49 999.704 3384.19 999.704C3381.92 999.721 3379.87 998.352 3379.01 996.249 3377.55 993.773 3376.23 991.216 3375.07 988.588 3358.79 953.74 3342.51 918.901 3326.22 883.803 3307.47 843.279 3288.56 802.59 3269.48 761.732 3268 758.768 3267.02 755.304 3264.55 752.831 3264.06 752.34 3262.33 752.09 3261.84 752.59 3261.34 753.331 3260.6 754.072 3260.11 754.813 3259.12 757.286 3258.14 759.509 3257.15 761.732 3246.79 785.696 3236.68 809.429 3226.56 833.393 3204.36 885.044 3182.32 936.776 3160.45 988.588 3159.21 991.061 3157.98 993.775 3156.75 996.249 3156.21 998.127 3154.5 999.43 3152.55 999.463 3148.36 999.704 3144.41 999.463 3140.22 999.463 3139.23 999.463 3138 997.731 3138 996.74 3138.03 995.815 3138.19 994.9 3138.49 994.025 3139.48 991.302 3140.71 988.588 3141.7 986.115 3180.18 894.928 3218.67 803.84 3257.15 712.851 3258.14 710.378 3259.37 708.154 3260.36 705.681 3261.19 703.962 3262.89 702.829 3264.8 702.717 3268.99 701.726 3273.43 701.976 3277.87 702.217 3281.82 702.467 3284.28 704.44 3285.76 707.904 3292.67 723.226 3299.82 738.297 3306.98 753.377 3343 830.725 3379.01 908.156 3415.03 985.67 3416.01 988.143 3417.25 990.607 3418.48 993.331 3418.79 994.203 3418.95 995.12 3418.97 996.045 3419.22 997.286 3417.74 999.509 3416.51 999.509 3410.83 999.75 3405.16 999.75 3399.49 1000Z" fill="#DEA53D" fill-rule="evenodd"/><path d="M3669 1257.64 3669 1142.62C3669 1139.39 3669 1136.18 3669.25 1132.95 3669.5 1128.73 3671.48 1126.46 3675.45 1126.26 3677.34 1126.06 3679.24 1125.97 3681.14 1126.01L3828.64 1126.01C3831.12 1126.01 3833.84 1126.26 3836.32 1126.5 3838.29 1126.79 3839.87 1128.27 3840.29 1130.21 3841.31 1134.54 3841.23 1139.06 3840.04 1143.34 3839.52 1145.14 3837.93 1146.43 3836.07 1146.57 3832.37 1146.82 3828.89 1146.82 3825.41 1146.82L3719.07 1146.82C3715.6 1146.82 3711.88 1147.07 3708.41 1147.07 3705.69 1147.31 3704.2 1149.05 3703.96 1152.02 3703.75 1154.25 3703.67 1156.48 3703.71 1158.72L3703.71 1230.1C3703.71 1232.57 3703.96 1235.06 3704.2 1237.78 3704.32 1240.1 3706.3 1241.87 3708.6 1241.75 3708.62 1241.75 3708.64 1241.75 3708.66 1241.75 3711.12 1242.04 3713.6 1242.21 3716.07 1242.25L3808.29 1242.25C3811.75 1242.25 3815.47 1242 3818.7 1243.24 3819.93 1243.48 3821.17 1244.47 3821.17 1245.72 3821.17 1248.69 3821.42 1251.42 3821.42 1254.39 3821.42 1257.37 3819.93 1258.86 3816.71 1259.1 3814.23 1259.35 3811.5 1259.6 3809.03 1259.6L3717.8 1259.6C3714.58 1259.6 3711.32 1259.85 3708.13 1260.09 3705.87 1260.25 3704.08 1262.05 3703.93 1264.31 3703.93 1267.04 3703.68 1269.52 3703.68 1272L3703.68 1357.54C3703.68 1370.68 3703.43 1370.92 3716.56 1370.92L3826.12 1370.92C3829.11 1370.92 3832.33 1371.17 3835.54 1371.42 3838.03 1371.42 3840.26 1373.9 3840.51 1376.38 3841 1379.83 3841 1383.34 3840.51 1386.79 3840.13 1389.45 3837.98 1391.51 3835.3 1391.75 3832.82 1391.75 3830.34 1392 3827.89 1392L3682.38 1392C3679.66 1392 3677.18 1391.75 3674.71 1391.75 3672.03 1391.51 3669.87 1389.45 3669.5 1386.79 3669.25 1385.56 3669.25 1384.32 3669 1383.08L3669 1257.64Z" fill="#DEA53D" fill-rule="evenodd"/><path d="M2279.08 1257.91 2279.08 1140.9C2279.08 1137.67 2279.08 1134.7 2279.32 1131.47 2279.46 1128.91 2281.41 1126.83 2283.95 1126.51 2287.12 1126.1 2290.32 1125.94 2293.52 1126.02L2435.73 1126.02C2438.93 1126.02 2442.13 1126.27 2445.07 1126.51 2447.77 1126.76 2449 1128.25 2449 1130.98L2449 1142.38C2448.74 1144.67 2446.88 1146.45 2444.58 1146.6 2442.38 1146.8 2440.16 1146.89 2437.95 1146.85L2326.94 1146.85C2323.5 1146.85 2320.06 1147.34 2316.62 1147.59 2315.29 1147.75 2314.21 1148.75 2313.92 1150.06 2313.63 1152.28 2313.47 1154.52 2313.43 1156.76 2313.18 1163.95 2313.18 1171.39 2313.18 1178.57 2313.18 1195.43 2313.18 1212.29 2313.43 1228.9 2313.43 1232.12 2313.67 1235.39 2313.92 1238.32 2314.16 1239.81 2315.64 1241.54 2317.11 1241.54 2319.23 1241.83 2321.36 1242 2323.5 1242.04 2330.62 1242.29 2337.5 1242.29 2344.37 1242.29L2415.85 1242.29C2419.06 1242.21 2422.26 1242.37 2425.43 1242.78 2428.38 1243.03 2429.85 1244.76 2430.05 1247.74L2430.05 1252.45C2430.05 1257.41 2428.33 1259.14 2423.17 1259.39 2420.47 1259.64 2417.52 1259.64 2414.85 1259.64L2329.87 1259.64C2326.92 1259.64 2323.73 1259.64 2320.54 1259.89 2314.88 1260.13 2313.65 1261.37 2313.41 1267.31 2313.41 1269.04 2313.16 1270.53 2313.16 1272.26 2313.16 1301 2313.16 1329.77 2313.41 1358.78 2313.41 1361.51 2313.65 1364.48 2313.9 1367.21 2313.9 1368.7 2315.62 1370.18 2317.09 1370.43 2318.62 1370.73 2320.17 1370.9 2321.72 1370.92L2331.05 1370.92C2365.69 1370.92 2400.07 1370.92 2434.66 1371.17 2438.1 1371.09 2441.55 1371.26 2444.98 1371.67 2447.44 1371.92 2448.91 1373.9 2448.91 1376.38 2448.91 1380.09 2448.91 1383.8 2448.66 1387.78 2448.66 1389.53 2447.44 1390.56 2445.72 1391.01 2444.64 1391.51 2443.46 1391.77 2442.27 1391.75 2439.57 1392 2437.12 1392 2434.66 1392L2293.33 1392C2290.62 1392 2287.68 1391.75 2285 1391.75 2282.04 1391.56 2279.66 1389.26 2279.35 1386.3 2279.15 1385.08 2279.07 1383.83 2279.11 1382.59 2278.86 1379.62 2279.11 1376.88 2279.11 1373.91Z" fill="#DEA53D" fill-rule="evenodd"/><path d="M2895.15 1395.97C2879.28 1396 2863.48 1393.5 2848.39 1388.56 2837.99 1384.86 2828.09 1379.92 2819.44 1372.76 2806.08 1361.9 2797.41 1348.33 2795.19 1331.3 2794.94 1330.08 2794.94 1328.82 2795.19 1327.6 2795.19 1326.61 2796.67 1325.13 2797.66 1324.88 2798.54 1324.58 2799.46 1324.41 2800.38 1324.39L2814.48 1324.39C2818.45 1324.39 2819.69 1325.62 2820.67 1329.08 2821.42 1331.8 2821.91 1334.75 2822.65 1337.47 2825.46 1349.27 2832.74 1359.53 2842.94 1366.1 2852.96 1372.89 2864.54 1377.06 2876.59 1378.19 2889.95 1379.68 2903.56 1379.92 2917.17 1376.95 2921.77 1375.98 2926.32 1374.75 2930.78 1373.25 2934.65 1371.71 2938.37 1369.8 2941.89 1367.57 2950.1 1362.72 2955.93 1354.67 2957.97 1345.35 2960.2 1336.36 2960.2 1326.95 2957.97 1317.96 2956.23 1311.23 2952.72 1305.09 2947.79 1300.18 2939.87 1292.04 2930.72 1286.11 2920.57 1281.18 2909.47 1275.79 2897.97 1271.25 2886.18 1267.61 2883.84 1266.64 2881.45 1265.81 2879.01 1265.14 2867.6 1261.32 2856.51 1256.62 2845.84 1251.08 2835.97 1246.02 2827.03 1239.35 2819.37 1231.33 2811.21 1222.93 2806.75 1212.57 2805.48 1200.97 2804.79 1195.32 2804.7 1189.61 2805.23 1183.94 2807.21 1166.17 2815.63 1151.61 2829.73 1140.75 2836.56 1135.53 2844.2 1131.46 2852.34 1128.69 2867.66 1123.37 2883.91 1121.18 2900.1 1122.27 2911.75 1122.95 2923.24 1125.28 2934.24 1129.18 2946.37 1133.62 2957.26 1140.29 2965.92 1149.66 2972.58 1156.45 2977.51 1164.75 2980.27 1173.85 2980.56 1175.4 2980.72 1176.96 2980.77 1178.54 2981.01 1179.53 2979.53 1181.26 2978.54 1181.26 2978.29 1181.5 2978.05 1181.5 2977.55 1181.5 2971.61 1181.5 2965.67 1181.75 2959.73 1181.5 2958.02 1181.56 2956.48 1180.44 2956.03 1178.79 2955.14 1176.45 2954.4 1174.06 2953.81 1171.63 2950.68 1161.87 2943.95 1153.66 2934.99 1148.67 2931.99 1146.95 2928.84 1145.46 2925.6 1144.23 2907 1137.38 2886.66 1136.78 2867.69 1142.51 2860.65 1144.5 2854.02 1147.76 2848.15 1152.14 2839.6 1158.29 2834.1 1167.82 2833.06 1178.3 2831.81 1190.39 2835.28 1200.75 2844.68 1208.9 2850.92 1213.83 2857.64 1218.13 2864.73 1221.73 2875.37 1227.16 2886.75 1231.36 2897.89 1235.55L2919.41 1242.96C2930.74 1246.96 2941.67 1252 2952.08 1258.01 2960.88 1263.15 2968.88 1269.55 2975.83 1277.01 2985.26 1286.94 2990.87 1299.88 2991.67 1313.54 2992.24 1319.88 2992.07 1326.25 2991.17 1332.55 2988.19 1350.8 2979.05 1365.36 2964.2 1376.72 2957.1 1381.91 2949.26 1385.99 2940.94 1388.81 2926.22 1393.89 2910.72 1396.31 2895.15 1395.97Z" fill="#DEA53D" fill-rule="evenodd"/><path d="M3987.96 1395.89C3972.15 1396.23 3956.41 1393.81 3941.43 1388.73 3931.48 1385.37 3922.12 1380.45 3913.71 1374.16 3905.85 1368.3 3899.34 1360.8 3894.66 1352.18 3891.39 1346.01 3889.21 1339.32 3888.19 1332.42 3887.94 1330.86 3887.94 1329.28 3888.19 1327.73 3888.41 1326.09 3889.76 1324.85 3891.4 1324.76 3891.65 1324.76 3892.14 1324.51 3892.39 1324.51L3908.48 1324.51C3910.7 1324.76 3912.55 1326.32 3913.18 1328.47 3913.67 1329.96 3913.92 1331.68 3914.42 1333.16 3917.89 1352.18 3929.27 1364.52 3946.59 1372.43 3953.9 1375.61 3961.68 1377.62 3969.61 1378.36 3982.97 1379.84 3996.58 1380.09 4010.2 1377.12 4015.16 1376.06 4020.04 1374.67 4024.8 1372.93 4028.92 1371.36 4032.82 1369.29 4036.43 1366.75 4043.48 1361.83 4048.56 1354.57 4050.79 1346.25 4053.3 1336.69 4053.21 1326.63 4050.54 1317.11 4048.77 1310.73 4045.35 1304.94 4040.63 1300.31 4033.04 1292.65 4024.16 1286.38 4014.4 1281.8 4002.11 1275.95 3989.46 1270.92 3976.52 1266.73 3963.9 1262.54 3951.52 1257.85 3939.65 1251.68 3929.74 1246.65 3920.72 1240.06 3912.91 1232.16 3905.13 1224.24 3900.1 1214.03 3898.56 1203.02 3897.58 1195.81 3897.58 1188.49 3898.56 1181.28 3901.28 1164.49 3909.45 1151.16 3922.81 1140.78 3929.31 1135.69 3936.58 1131.69 3944.35 1128.93 3960.19 1123 3976.76 1121.27 3993.84 1122.26 4005.17 1122.94 4016.34 1125.27 4027 1129.18 4039.39 1133.87 4050.52 1140.53 4059.43 1150.17 4065.69 1156.94 4070.34 1165.05 4073.04 1173.88 4073.25 1175.43 4073.33 1177 4073.29 1178.57 4073.18 1180.16 4071.9 1181.43 4070.31 1181.53 4064.62 1181.78 4058.93 1181.78 4053.24 1181.78 4051.29 1181.75 4049.58 1180.45 4049.03 1178.57 4048.29 1176.59 4047.54 1174.37 4046.81 1172.4 4043.11 1160.54 4035.42 1152.15 4024.29 1146.71 4016.28 1142.84 4007.65 1140.41 3998.79 1139.55 3984.19 1137.82 3969.83 1138.81 3955.97 1143.99 3950.3 1146.08 3944.96 1148.99 3940.14 1152.64 3929.97 1161.03 3925.05 1171.9 3925.79 1185.23 3926.28 1194.13 3929.48 1201.78 3936.43 1207.71 3939.15 1210.18 3942.36 1212.41 3945.34 1214.63 3953.26 1220.06 3961.92 1224.01 3970.58 1227.71 3982.22 1232.66 3994.09 1236.85 4006.22 1240.8 4014.65 1243.63 4022.91 1246.93 4030.97 1250.69 4036.16 1253.4 4041.61 1256.37 4046.81 1259.33 4055.17 1264.37 4062.75 1270.61 4069.32 1277.84 4076.63 1285.8 4081.6 1295.63 4083.68 1306.24 4085.66 1316.8 4085.41 1327.65 4082.94 1338.1 4079.44 1353.05 4070.88 1366.32 4058.69 1375.64 4051.39 1381.19 4043.29 1385.61 4034.66 1388.73 4023.28 1392.83 4011.36 1395.25 3999.27 1395.89 3995.63 1396.14 3991.92 1395.89 3987.96 1395.89Z" fill="#DEA53D" fill-rule="evenodd"/><path d="M3103.37 1223.39 3103.37 1296.35C3103.37 1302.02 3103.37 1307.69 3103.61 1313.36 3104.14 1322.77 3106.74 1331.94 3111.23 1340.23 3113.77 1345.02 3116.99 1349.42 3120.81 1353.29 3125.8 1358.54 3131.41 1363.18 3137.51 1367.1 3147.89 1373.74 3159.86 1377.49 3172.17 1377.94 3183.73 1378.36 3195.28 1377.27 3206.56 1374.73 3231.86 1369.07 3256.42 1346.88 3261.58 1315.08 3262.32 1310.16 3262.8 1304.98 3263.05 1300.04 3263.29 1293.15 3263.29 1286.24 3263.29 1279.34L3263.29 1141.31C3263.29 1137.86 3263.54 1134.4 3263.79 1130.95 3263.79 1128.74 3265.99 1126.77 3267.96 1126.52 3271.05 1125.69 3274.31 1125.86 3277.3 1127.01 3278.52 1127.51 3279.51 1128.25 3279.51 1129.72 3279.75 1132.92 3280 1135.88 3280 1139.09L3280 1292.16C3280.04 1299.16 3279.71 1306.15 3279.01 1313.11 3278.07 1319.98 3276.51 1326.74 3274.35 1333.32 3265.5 1359.2 3248.31 1377.45 3222.75 1387.55 3213.38 1391.21 3203.54 1393.53 3193.53 1394.46 3175.6 1395.69 3157.67 1394.95 3139.98 1391 3127.74 1388.26 3116.14 1383.15 3105.84 1375.97 3088.15 1364.14 3077.6 1347.62 3072.93 1326.92 3070.84 1317.43 3069.61 1307.78 3069.25 1298.08 3069 1293.15 3069 1288.46 3069 1283.78L3069 1140.08C3069 1137.61 3069 1135.14 3069.25 1132.43 3069.49 1128.49 3071.46 1126.52 3075.87 1126.03L3094.78 1126.03C3096.02 1126.07 3097.26 1126.23 3098.46 1126.52 3100.43 1126.77 3102.64 1128.74 3102.89 1130.7 3103.14 1133.66 3103.38 1136.38 3103.38 1139.34L3103.38 1223.39Z" fill="#DEA53D" fill-rule="evenodd"/><path d="M2727.38 1391.79 2715.08 1391.79C2712.47 1391.92 2710.05 1390.45 2708.93 1388.08 2707.95 1385.6 2706.72 1383.37 2705.73 1381.13 2675.22 1315.66 2644.97 1249.93 2614.72 1184.45 2612.99 1180.98 2611.52 1177.5 2609.79 1174.03 2609.2 1173.31 2608.55 1172.65 2607.83 1172.05 2607.08 1171.56 2606.11 1171.56 2605.36 1172.05 2604.64 1172.66 2604.05 1173.42 2603.65 1174.28 2602.35 1176.86 2601.2 1179.51 2600.2 1182.22 2572.15 1247.95 2544.17 1313.84 2516.27 1379.89 2515.1 1382.85 2513.79 1385.75 2512.34 1388.58 2511.61 1390.39 2509.86 1391.56 2507.91 1391.55 2504.71 1391.8 2501.51 1391.55 2498.31 1391.55 2497.08 1391.55 2495.61 1389.07 2496.1 1387.84 2496.64 1385.74 2497.3 1383.67 2498.07 1381.64 2504.96 1365.27 2511.84 1348.88 2518.73 1332.5 2545.79 1267.51 2573.09 1202.78 2600.4 1137.77 2601.38 1135.53 2602.37 1133.06 2603.35 1130.82 2604.47 1128.09 2607.06 1126.25 2609.99 1126.11 2613.68 1125.86 2617.37 1126.11 2621.31 1126.11 2623.19 1126.29 2624.85 1127.41 2625.74 1129.09 2627.21 1132.06 2628.45 1134.79 2629.92 1137.77 2667.06 1218.37 2704.29 1298.9 2741.6 1379.34 2742.59 1381.82 2743.81 1384.55 2744.8 1387.28 2745.41 1388.9 2744.59 1390.72 2742.96 1391.32 2742.76 1391.41 2742.55 1391.45 2742.34 1391.49 2739.39 1391.74 2736.68 1391.74 2733.73 1391.74 2731.6 1391.95 2729.47 1392.03 2727.33 1391.99Z" fill="#DEA53D" fill-rule="evenodd"/><path d="M1811.11 1268.89 1811.11 1377.16C1811.11 1380.61 1810.87 1384.08 1810.62 1387.53 1810.51 1388.81 1809.63 1389.89 1808.41 1390.26 1807.54 1390.62 1806.64 1390.87 1805.71 1391L1782.13 1391C1779.88 1390.82 1778.01 1389.23 1777.46 1387.04 1777.17 1386.08 1777.01 1385.08 1776.97 1384.08 1776.77 1382.52 1776.68 1380.95 1776.72 1379.38L1776.72 1163.33C1776.72 1159.12 1776.47 1155.17 1776.23 1150.97 1776.09 1148.98 1774.52 1147.4 1772.54 1147.27 1769.1 1147.02 1765.66 1146.77 1762.22 1146.77L1689.76 1146.77C1686.56 1146.77 1683.37 1146.77 1680.18 1146.52 1677.89 1146.26 1676.13 1144.38 1676 1142.08L1676 1129.71C1676.31 1128.45 1677.24 1127.43 1678.45 1126.99 1679.9 1126.54 1681.38 1126.21 1682.88 1126L1896.83 1126C1899.53 1126 1902.48 1126 1905.18 1126.25 1906.45 1126.25 1907.7 1126.51 1908.87 1126.99 1910.35 1127.48 1911.81 1128.71 1911.81 1130.45 1912.06 1134.23 1912.06 1138.03 1911.81 1141.82 1911.62 1144.42 1909.5 1146.45 1906.91 1146.51 1903.71 1146.76 1900.52 1146.76 1897.57 1146.76L1823.87 1146.76C1820.92 1146.76 1817.73 1147.01 1814.53 1147.26 1812.96 1147.57 1811.77 1148.87 1811.59 1150.47 1811.34 1153.69 1811.09 1156.9 1811.09 1159.87L1811.09 1268.89Z" fill="#DEA53D" fill-rule="evenodd"/><g><g><g><path d="M49.0002 1046.5C49.0002 670.118 354.118 365 730.5 365 1106.88 365 1412 670.118 1412 1046.5 1412 1422.88 1106.88 1728 730.5 1728 354.118 1728 49.0002 1422.88 49.0002 1046.5Z" fill="#AE1819" fill-rule="evenodd"/><path d="M1303.88 1049C1303.43 1041.41 1303.2 1034.22 1302.96 1027.24 1302.72 1019.71 1302.49 1012.61 1302.04 1005.37L1302.04 1005.19 1302.04 1005.03C1301.6 1001.96 1301.38 998.68 1301.11 995.205 1300.84 991.731 1300.63 988.062 1300.19 984.624 1299.26 977.666 1298.34 970.828 1297.42 964.221 1296.49 957.614 1295.57 950.776 1294.64 943.827L1294.64 943.642 1294.64 943.466C1294.25 941.618 1293.85 939.77 1293.45 937.857 1291.03 926.436 1288.53 914.626 1285.31 903.362 1279.66 880.029 1272.14 857.19 1262.83 835.064 1253.26 811.413 1242.34 788.334 1230.12 765.944L1230.12 765.898 1230.12 765.842C1211.47 733.5 1191.88 705.029 1170.25 678.915 1149.06 653.337 1124.56 629.154 1095.35 604.99 1065.67 580.714 1033.68 559.408 999.838 541.377 963.393 521.685 928.14 507.297 892.12 497.391L885.097 495.368C874.535 492.318 864.564 489.435 853.789 487.125L853.734 487.125 825.873 481.58 825.651 481.58 825.43 481.58C820.893 481.128 816.189 480.435 811.726 479.732 807.263 479.03 802.541 478.355 797.865 477.884 793.753 476.96 788.994 476.905 784.364 476.905 776.376 475.8 768.328 475.183 760.264 475.057 753.593 474.132 747.115 474.132 739.639 474.132 734.926 473.874 730.01 473.754 724.605 473.754 712.333 473.754 699.59 474.419 687.263 475.066L687.06 475.066 686.857 475.066C680.333 475.99 674.178 476.914 668.005 476.914L667.553 476.914 667.1 476.997C662.764 477.988 658.341 478.545 653.895 478.66L653.562 478.66 653.239 478.66 633.741 481.433 633.565 481.433 633.39 481.433C625.277 483.281 616.886 485.129 609.678 485.997L609.364 485.997 609.059 486.081C603.117 487.661 597.268 489.093 591.622 490.47 583.869 492.374 576.551 494.166 569.056 496.301L568.982 496.301 568.918 496.301C550.769 502.289 529.737 509.155 509.075 518.026 477.897 531.378 454.805 543.197 434.226 556.356 407.763 571.548 382.713 589.075 359.376 608.732L359.321 608.778 359.265 608.825C337.587 628.165 309.707 654.104 286.328 683.582 264.622 709.613 244.745 738.961 225.525 773.318 206.745 807.163 191.67 842.933 180.56 880.011L180.56 880.085 180.56 880.149C176.863 893.909 173.167 908.795 169.545 923.22L169.397 923.83 169.397 923.885 169.397 923.95C167.296 932.625 165.722 941.421 164.684 950.286 163.03 959.397 160.988 971.189 160.064 981.982L159.787 984.125C158.795 990.551 158.212 997.032 158.04 1003.53 156.192 1019.49 156.192 1035.58 156.192 1051.13 156.192 1061.18 156.192 1070.69 157.116 1081.03 157.235 1088.45 157.778 1095.85 158.742 1103.21L158.964 1105.18C159.119 1110.01 159.738 1114.81 160.812 1119.52 161.256 1123.83 161.866 1128.21 162.513 1132.84 163.252 1138.11 164.019 1143.56 164.499 1148.94L164.499 1149.16 164.499 1149.38C166.773 1161.49 169.619 1173.4 172.631 1186.1 173.333 1189.04 174.042 1192.03 174.757 1195.05L174.757 1195.16 174.757 1195.28C181.622 1218.79 189.163 1241.09 197.174 1261.55 207.635 1288.55 221.117 1315.5 238.388 1343.91 255.951 1372.8 276.069 1400.05 298.498 1425.34 327.191 1457.97 356.89 1485.19 389.279 1508.56 419.989 1531.96 453.297 1551.74 488.542 1567.51 515.229 1579.82 541.029 1589.57 565.24 1596.48 576.994 1600.39 588.841 1603.29 599.883 1605.83 614.641 1609.53 629.607 1612.33 644.701 1614.25 646.808 1614.68 648.941 1615 651.086 1615.17 652.903 1615.33 654.708 1615.6 656.492 1615.98L656.667 1616.03 656.852 1616.03C659.828 1616.53 662.979 1616.77 666.037 1616.95 669.096 1617.14 671.896 1617.41 674.483 1617.88L674.585 1617.88 674.677 1617.88C678.374 1618.34 682.07 1618.58 685.591 1618.8 689.287 1619.04 692.761 1619.26 695.949 1619.73L696.282 1619.73 696.605 1619.73C702.085 1619.73 708.304 1619.73 713.497 1620.59L713.876 1620.65 746.052 1620.65 746.283 1620.65C750.904 1620.19 755.709 1619.97 760.819 1619.73 765.744 1619.5 770.845 1619.26 775.964 1618.8L776.075 1618.8 776.186 1618.8C779.346 1618.35 782.802 1618.13 786.452 1617.88 790.103 1617.63 793.716 1617.41 797.477 1616.95L797.551 1616.95 799.953 1616.61C806.412 1615.82 812.825 1614.68 819.164 1613.21 831.02 1611.36 843.264 1609.52 854.501 1606.7 870.496 1603.87 885.67 1599.13 900.353 1594.56 917.301 1589.84 933.462 1583.19 949.088 1576.76 974.62 1566.49 999.33 1554.3 1023.01 1540.28 1048.23 1525.5 1073.35 1507.45 1099.79 1485.09 1116.92 1470.8 1133.17 1455.51 1148.46 1439.28 1165.6 1420.99 1181.54 1401.62 1196.19 1381.29L1196.19 1381.29 1196.19 1381.29C1218.76 1348.95 1237.12 1317.13 1252.31 1284.08L1252.31 1284.08 1252.31 1284.08C1263.34 1259.1 1273 1233.55 1281.27 1207.54L1281.27 1207.46 1281.27 1207.39C1284.97 1194.61 1287.66 1182.08 1290.63 1167.2 1293.41 1155 1295.35 1142.72 1297.18 1130.84 1298.89 1121.83 1300.13 1112.74 1300.93 1103.6 1301.39 1098.98 1301.63 1094.62 1301.85 1090.4 1302.09 1085.99 1302.31 1081.82 1302.78 1077.66L1302.78 1077.41 1302.78 1077.15C1302.78 1067.26 1302.78 1057.93 1303.7 1049.84L1303.7 1049.44ZM1296.67 998.07C1296.55 996.342 1296.44 994.595 1296.32 992.867 1296.43 994.595 1296.54 996.342 1296.66 998.07ZM1284.53 919.441C1285.71 924.477 1286.81 929.55 1287.88 934.549 1288.58 937.888 1289.28 941.184 1289.98 944.437 1290.21 946.174 1290.44 947.899 1290.67 949.612 1291.14 953.043 1291.61 956.431 1292.07 959.776 1292.76 964.831 1293.46 969.849 1294.15 974.94 1294.62 978.332 1295.08 981.751 1295.55 985.234 1295.09 981.751 1294.62 978.332 1294.15 974.94 1293.46 969.849 1292.76 964.831 1292.07 959.776 1291.6 956.401 1291.14 953.012 1290.67 949.612 1290.44 947.905 1290.21 946.18 1289.98 944.437 1289.28 941.193 1288.58 937.885 1287.88 934.549 1286.81 929.55 1285.71 924.477 1284.53 919.441 1283.74 916.089 1282.92 912.76 1282.04 909.452 1282.92 912.748 1283.75 916.077 1284.53 919.441ZM1223.79 1293.02C1222.5 1295.61 1221.2 1298.19 1219.87 1300.76 1218.54 1303.33 1217.2 1305.9 1215.84 1308.46 1217.2 1305.9 1218.55 1303.34 1219.87 1300.76 1221.19 1298.18 1222.5 1295.6 1223.79 1293.02 1225.06 1290.43 1226.33 1287.83 1227.56 1285.22 1228.79 1282.62 1229.98 1280 1231.14 1277.38 1229.98 1280 1228.79 1282.62 1227.56 1285.22 1226.33 1287.83 1225.06 1290.43 1223.79 1293.02ZM1114.45 1442.89C1108.74 1448.54 1102.87 1454.04 1096.84 1459.38 1090.8 1464.48 1084.7 1469.52 1078.54 1474.49 1073.92 1478.19 1069.25 1481.86 1064.54 1485.49 1069.25 1481.87 1073.92 1478.22 1078.54 1474.49 1084.7 1469.53 1090.8 1464.49 1096.84 1459.38 1102.87 1454.05 1108.74 1448.55 1114.45 1442.89 1117.31 1440.06 1120.14 1437.2 1122.92 1434.3 1120.12 1437.2 1117.31 1440.05 1114.45 1442.89ZM978.455 1539.25C969.824 1543.69 961.037 1547.99 951.981 1552.19 961.037 1548.01 969.824 1543.7 978.455 1539.25 992.834 1531.86 1006.76 1524.1 1020.69 1515.98 1029.11 1510.76 1037.36 1505.29 1045.42 1499.57 1037.35 1505.27 1029.1 1510.74 1020.69 1515.98 1006.75 1524.1 992.825 1531.86 978.446 1539.25ZM916.931 1565.85C912.2 1567.62 907.425 1569.35 902.608 1571.03 900.199 1571.87 897.775 1572.69 895.335 1573.51 893.943 1573.97 892.538 1574.42 891.122 1574.85 892.538 1574.42 893.943 1573.98 895.335 1573.51 897.8 1572.69 900.224 1571.87 902.608 1571.03 907.431 1569.35 912.206 1567.62 916.931 1565.85 921.656 1564.09 926.359 1562.29 931.041 1560.47 926.359 1562.29 921.653 1564.09 916.922 1565.85ZM805.257 1592.99C799.713 1593.92 795.037 1594.84 789.465 1594.84 783.921 1595.77 779.3 1595.77 773.682 1596.69 755.108 1598.54 736.534 1598.54 717.036 1598.54 704.296 1598.5 691.575 1597.58 678.965 1595.77L651.104 1592.99 617.681 1587.45 651.104 1592.99 678.965 1595.77C691.575 1597.58 704.296 1598.5 717.036 1598.54 736.534 1598.54 755.108 1598.54 773.682 1596.69 779.226 1595.77 783.847 1595.77 789.465 1594.84 795.009 1594.84 799.685 1593.92 805.257 1592.99 808.732 1592.64 812.216 1592.16 815.745 1591.61 812.216 1592.16 808.732 1592.64 805.257 1592.99ZM433.782 582.581C442.487 577.037 451.191 571.705 459.998 566.659 451.191 571.705 442.487 577.018 433.782 582.581 421.947 589.888 410.385 597.699 399.092 606.015 410.391 597.717 421.966 589.906 433.819 582.581ZM705.911 496.569 708.831 496.486 705.911 496.569 703.037 496.68C696.836 496.948 690.737 497.391 683.576 498.149L652.925 500.921 683.576 498.149C690.737 497.391 696.836 496.948 703.037 496.68ZM700.764 478.91 706.595 478.67ZM707.953 478.614 712.573 478.466ZM1271.54 1121.67 1271.54 1121.87 1271.54 1122.06C1271.09 1126.12 1270.4 1130.52 1269.69 1134.78 1268.99 1139.04 1268.3 1143.6 1267.85 1147.85 1266.92 1152.4 1266 1156.8 1265.07 1161.06 1264.15 1165.32 1263.23 1169.84 1262.3 1174.48 1259.53 1186.32 1255.83 1197.51 1252.22 1208.34L1252.22 1208.43 1252.22 1208.54C1246.21 1229.57 1239.62 1247.54 1232.07 1263.49L1232 1263.63 1231.94 1263.79C1223.71 1284.79 1212.53 1305.37 1201.64 1325.25L1201.64 1325.32C1188.91 1346.46 1174.78 1366.72 1159.33 1385.96 1134.77 1416.07 1114.61 1437.64 1093.96 1455.89 1065.81 1479.69 1041.81 1497.54 1018.46 1512.03 993.462 1526.6 971.793 1538 950.299 1547.92 932.141 1555.18 913.336 1562.7 894.023 1569.17 884.884 1572.21 875.071 1574.63 865.58 1576.97L860.11 1578.32C856.709 1579 853.309 1579.81 850.028 1580.58 844.647 1581.97 839.188 1583.05 833.682 1583.81L833.524 1583.81 833.367 1583.81 828.812 1584.65C820.495 1586.17 812.65 1587.62 804.952 1588.39L804.804 1588.39 804.657 1588.39C803.908 1588.51 803.178 1588.63 802.467 1588.76 798.234 1589.6 793.937 1590.08 789.622 1590.18L789.243 1590.18 788.864 1590.25C786.249 1590.68 783.856 1590.9 781.315 1591.17 778.773 1591.45 776.131 1591.64 773.229 1592.1 754.942 1593.95 736.599 1593.95 717.194 1593.95 704.672 1593.89 692.17 1592.97 679.778 1591.17L679.676 1591.17 679.584 1591.17 665.658 1589.79 651.871 1588.41 618.669 1582.87C610.778 1581.3 601.519 1578.9 590.375 1575.57L590.31 1575.57 590.254 1575.57C561.229 1567.76 539.08 1560.38 518.417 1551.65 493.92 1541.49 468.213 1528.22 441.988 1512.09 425.872 1501.93 408.721 1490.64 392.338 1477.19L392.273 1477.13 392.199 1477.08C368.7 1459.15 346.846 1439.16 326.895 1417.35 303.075 1390.64 281.508 1362 262.414 1331.74 241.779 1296.69 226.43 1264.51 215.471 1233.35L215.471 1233.29 215.471 1233.24C209.187 1216.75 203.634 1198.07 197.997 1174.42L197.997 1174.36 197.997 1174.3C194.468 1161.36 191.715 1148.21 189.754 1134.94L189.754 1134.86 189.754 1134.75C187.906 1124.74 186.982 1114.48 186.058 1104.56L183.286 1068.52C182.26 1047.96 182.565 1029.99 184.21 1013.59L184.21 1013.36 184.21 1013.13C184.377 1005.88 184.994 998.653 186.058 991.481L186.058 991.481 186.058 991.195 186.058 990.908C186.158 986.562 186.637 982.234 187.49 977.971 187.608 977.287 187.728 976.585 187.851 975.864 188.775 970.264 189.699 963.657 190.623 957.254 192.471 946.433 194.319 935.233 197.091 924.274L197.091 924.274C201.712 904.998 207.256 885.463 213.724 866.233 223.732 837.245 234.849 812.323 247.712 790.044L247.712 789.979 247.712 789.914C261.414 764.185 277.116 739.573 294.673 716.303 309.55 696.491 327.32 676.328 349.026 654.64 375.647 628.911 404.947 606.108 436.425 586.619L436.425 586.619 436.425 586.619C461.421 570.642 483.95 558.361 507.31 547.984L507.31 547.984 507.31 547.984C529.285 537.908 552.012 529.56 575.285 523.016 577.696 522.332 580.053 521.648 582.391 520.973 592.768 517.97 602.572 515.133 613.005 512.897 622.874 511.104 633.085 509.247 644.091 507.408 647.433 507.189 650.732 506.534 653.904 505.458L684.029 502.686 684.094 502.686C701.494 500.838 712.583 500.838 734.677 500.838L755.783 500.838C759.885 501.282 763.933 501.513 767.86 501.762 772.019 501.993 775.946 502.224 779.605 502.686 786.998 503.61 793.577 504.534 799.935 505.458L800.267 505.458 800.609 505.458C802.283 505.501 803.952 505.646 805.608 505.893 807.529 506.168 809.463 506.332 811.402 506.382 814.11 506.78 816.845 507.353 819.719 507.953 823.415 508.73 827.324 509.524 831.556 510.06 840.797 511.372 850.038 513.664 859.029 515.882 862.374 516.704 865.83 517.554 869.194 518.321 884.903 522.249 899.512 527.248 910.509 531.175 935.662 540.222 957.34 549.546 976.783 559.683L976.783 559.683 976.783 559.683C1004.53 573.623 1031.03 589.938 1055.96 608.446 1078.09 625.047 1099.02 643.191 1118.59 662.744 1133.34 677.499 1147.16 693.151 1159.98 709.613 1177.54 732.714 1190.06 750.835 1200.49 768.485 1213.33 791.208 1224.2 812.295 1233.68 832.957 1242 853.24 1248.52 873.801 1254.85 893.696 1259.28 909.156 1262.58 922.074 1264.95 933.154 1265.88 938.245 1266.8 943.661 1267.73 948.863 1268.65 954.066 1269.57 959.481 1270.5 964.572 1270.63 965.339 1270.75 966.088 1270.88 966.818 1271.67 970.702 1272.14 974.646 1272.28 978.609L1272.28 979.182 1272.42 979.736C1272.8 981.399 1273.08 983.085 1273.25 984.782 1273.46 986.645 1273.77 988.495 1274.18 990.326 1274.35 998.602 1274.97 1006.86 1276.02 1015.07L1276.02 1015.26C1276.95 1027.12 1276.95 1039.28 1276.95 1051.02 1276.94 1065.72 1276.01 1080.4 1274.18 1094.98L1274.18 1095.26 1274.18 1095.55C1274.19 1104.32 1273.32 1113.08 1271.54 1121.67ZM1268.87 1165.32C1268.18 1168.63 1267.48 1171.99 1266.78 1175.48 1265.39 1181.52 1263.76 1187.32 1262.02 1193.04 1263.76 1187.36 1265.39 1181.55 1266.78 1175.48 1267.46 1171.98 1268.16 1168.63 1268.85 1165.32ZM1260.69 1197.22C1259.77 1200 1258.85 1202.83 1257.92 1205.62 1258.86 1202.83 1259.78 1200.04 1260.67 1197.22ZM1254.43 1217.06C1252.98 1221.88 1251.45 1226.63 1249.86 1231.32 1248.26 1236.03 1246.58 1240.67 1244.81 1245.24 1246.58 1240.62 1248.26 1236 1249.86 1231.32 1251.47 1226.65 1252.96 1221.88 1254.41 1217.06ZM305.715 1399.88C294.312 1385.97 283.507 1371.59 273.299 1356.75 269.467 1351.2 265.697 1345.57 261.989 1339.85 265.685 1345.55 269.455 1351.17 273.299 1356.75 283.55 1371.59 294.356 1385.97 305.715 1399.88ZM181.28 988.746C181.364 986.731 181.558 984.819 181.826 982.906 181.992 981.63 182.195 980.355 182.417 979.043 182.195 980.355 181.992 981.63 181.826 982.906 181.558 984.855 181.364 986.768 181.28 988.746ZM190.022 933.496C190.743 930.021 191.51 926.547 192.388 923.063 192.961 920.624 193.561 918.193 194.171 915.754 193.561 918.193 192.961 920.624 192.388 923.063 191.51 926.584 190.743 930.058 190.022 933.533ZM196.038 908.444C197.313 903.577 198.65 898.707 200.048 893.835 198.656 898.732 197.32 903.614 196.038 908.481ZM1266.11 917.436C1266.95 920.793 1267.75 924.123 1268.5 927.425 1267.72 924.153 1266.91 920.836 1266.07 917.472ZM1277.01 978.729C1277.01 978.147 1277.01 977.574 1277.01 976.992 1277.01 977.574 1277.01 978.147 1277.01 978.729 1277.34 980.106 1277.59 981.5 1277.77 982.906 1277.59 981.511 1277.32 980.13 1276.98 978.766ZM1221.96 798.388C1216.41 787.604 1210.58 776.931 1204.55 766.267 1200.02 758.609 1195.25 751.069 1190.23 743.646 1195.23 751.082 1200.01 758.622 1204.55 766.267 1210.58 776.931 1216.38 787.604 1221.96 798.388 1224.74 803.784 1227.47 809.211 1230.14 814.67 1227.47 809.23 1224.74 803.803 1221.96 798.388ZM960.445 527.109C971.411 532.037 982.262 537.351 993.009 543.049 982.253 537.388 971.393 532.084 960.427 527.137ZM870.275 513.895C865.747 512.851 861.089 511.677 856.349 510.522 861.089 511.677 865.747 512.851 870.275 513.895 875.819 515.288 881.259 516.794 886.594 518.414 881.278 516.824 875.831 515.327 870.256 513.923ZM819.118 503.194C820.772 503.536 822.454 503.897 824.173 504.229 822.445 503.897 820.772 503.536 819.118 503.194ZM780.178 498.149C772.786 497.225 764.395 497.225 756.041 496.301 764.358 497.225 772.749 497.225 780.178 498.149 782.95 498.5 785.621 498.842 788.199 499.193 785.621 498.842 782.969 498.5 780.178 498.149ZM623.65 506.272C628.816 505.347 634.083 504.423 639.544 503.499 634.083 504.414 628.816 505.338 623.65 506.272ZM588.369 514.431 574.037 518.562 588.369 514.431C593.082 513.091 597.758 511.797 602.498 510.605 597.758 511.797 593.082 513.091 588.369 514.431ZM377.044 623.24C380.655 620.265 384.301 617.344 387.985 614.48 384.289 617.344 380.642 620.265 377.044 623.24ZM179.968 1001.96C179.793 1003.81 179.645 1005.66 179.543 1007.5 179.442 1009.35 179.386 1011.2 179.386 1013.05 179.386 1011.2 179.442 1009.35 179.543 1007.5 179.645 1005.66 179.793 1003.82 179.968 1001.96ZM193.312 1175.46C194.476 1180.33 195.696 1185.27 197.008 1190.25 195.724 1185.3 194.504 1180.36 193.312 1175.46 191.917 1170.24 190.66 1165.16 189.523 1160.15 190.66 1165.16 191.917 1170.24 193.312 1175.46ZM367.804 1463.41C372.029 1467.02 376.296 1470.55 380.602 1473.99 383.479 1476.27 386.365 1478.52 389.26 1480.73 393.209 1483.97 397.214 1487.11 401.273 1490.15 397.219 1487.1 393.215 1483.97 389.26 1480.73 386.359 1478.53 383.476 1476.27 380.602 1473.99 376.289 1470.55 372.024 1467.02 367.804 1463.41 364.982 1461 362.182 1458.53 359.404 1456.02 362.176 1458.54 364.976 1461 367.804 1463.41ZM426.352 1507.6C430.64 1510.37 434.992 1513.2 439.41 1515.98 443.827 1518.76 448.53 1521.53 453.178 1524.22 456.258 1526.03 459.385 1527.81 462.557 1529.57 459.409 1527.81 456.283 1526.03 453.178 1524.22 448.527 1521.52 443.938 1518.77 439.41 1515.98 434.974 1513.2 430.64 1510.42 426.334 1507.6ZM543.626 1566.29C536.076 1563.66 528.536 1560.85 520.986 1557.77 528.536 1560.85 536.076 1563.66 543.626 1566.29ZM548.154 1567.83C552.67 1569.36 557.194 1570.81 561.728 1572.2 566.263 1573.6 570.791 1574.94 575.312 1576.24 570.784 1574.95 566.256 1573.6 561.728 1572.2 557.201 1570.81 552.675 1569.35 548.154 1567.83ZM1274.19 1135.57C1273.84 1137.78 1273.49 1139.98 1273.18 1142.15 1273.49 1139.98 1273.84 1137.78 1274.19 1135.57ZM1278.14 1109.12C1277.91 1111.33 1277.61 1113.53 1277.27 1115.77 1277.61 1113.49 1277.91 1111.33 1278.14 1109.12ZM1121.65 634.44C1131.18 643.366 1140.37 652.607 1149.25 662.162 1152.21 665.359 1155.12 668.596 1157.99 671.874 1155.12 668.591 1152.21 665.353 1149.25 662.162 1140.4 652.57 1131.19 643.329 1121.65 634.44 1118.48 631.476 1115.27 628.538 1112.02 625.624 1115.26 628.538 1118.48 631.476 1121.65 634.44ZM945.152 520.53C938.487 517.795 931.774 515.205 925.016 512.758 931.793 515.198 938.496 517.788 945.124 520.53ZM733.587 478.42C735.509 478.485 737.421 478.559 739.325 478.66 737.431 478.559 735.509 478.485 733.587 478.42ZM732.663 478.42C730.814 478.371 728.966 478.337 727.118 478.318 728.96 478.318 730.799 478.343 732.635 478.392ZM724.448 478.309 726.028 478.309C724.263 478.309 722.498 478.309 720.724 478.309ZM714.283 478.448C716.223 478.448 718.164 478.355 720.086 478.337 718.108 478.328 716.177 478.374 714.227 478.42ZM693.029 479.372 687.411 479.668ZM699.618 479.049 694.72 479.289ZM306.556 666.81C323.836 647.589 342.817 629.672 362.315 612.29 373.921 602.55 385.998 593.273 398.418 584.568 385.998 593.273 373.921 602.55 362.315 612.29 342.817 629.69 323.836 647.608 306.556 666.81 303.673 670.014 300.843 673.257 298.064 676.54 300.818 673.257 303.648 670.014 306.556 666.81ZM289.923 686.502C282.648 695.176 275.723 704.053 269.15 713.133 275.741 704.053 282.653 695.176 289.886 686.502ZM265.232 718.595C262.645 722.254 260.103 725.95 257.608 729.683 260.11 725.944 262.651 722.247 265.232 718.595ZM171.134 937.599C170.728 939.742 170.349 941.914 170.016 944.132 170.358 941.914 170.737 939.77 171.143 937.599ZM166.514 966.707C165.913 970.708 165.368 974.709 164.934 978.609 165.35 974.709 165.895 970.708 166.495 966.707ZM162.661 1003.82C162.661 1002.89 162.661 1001.97 162.661 1001.05 162.661 1001.97 162.661 1002.89 162.661 1003.82 161.967 1009.73 161.533 1015.65 161.256 1021.56 161.542 1015.65 161.977 1009.73 162.661 1003.82ZM162.596 1095.85C162.79 1097.83 163.012 1099.82 163.243 1101.86 163.021 1099.82 162.799 1097.83 162.605 1095.85ZM165.433 1118.87C165.202 1117.72 164.971 1116.55 164.758 1115.39 164.971 1116.55 165.202 1117.71 165.433 1118.87 165.673 1121.19 165.959 1123.57 166.274 1125.99 165.978 1123.57 165.691 1121.19 165.433 1118.87ZM169.129 1148.61C169.018 1147.33 168.889 1146.06 168.741 1144.78 168.464 1142.23 168.131 1139.69 167.817 1137.18 168.149 1139.69 168.482 1142.23 168.741 1144.78 168.889 1146.06 169.018 1147.33 169.129 1148.61 169.831 1152.31 170.583 1156.02 171.384 1159.75 170.617 1156 169.868 1152.31 169.129 1148.61ZM172.613 1165.35C173.444 1169.11 174.322 1172.87 175.219 1176.67 174.359 1172.82 173.481 1169.06 172.65 1165.31ZM201.638 1259.95C196.407 1246.61 191.547 1232.9 187.056 1219.07 191.547 1232.93 196.407 1246.61 201.638 1259.95 203.024 1263.55 204.459 1267.11 205.944 1270.65 204.49 1267.08 203.067 1263.5 201.675 1259.9ZM451.894 1543.99C458.14 1547.47 464.477 1550.83 470.902 1554.04 464.47 1550.82 458.134 1547.47 451.894 1543.99ZM490.464 1563.3C493.477 1564.7 496.52 1566.08 499.594 1567.43 496.526 1566.06 493.483 1564.68 490.464 1563.3ZM518.306 1575.32C513.569 1573.41 508.875 1571.45 504.224 1569.44 508.875 1571.44 513.569 1573.4 518.306 1575.32 526.207 1578.5 534.219 1581.52 542.332 1584.33 534.219 1581.54 526.207 1578.52 518.306 1575.33ZM623.253 1606.19C630.682 1607.58 638.109 1608.75 645.532 1609.67 638.115 1608.76 630.689 1607.6 623.253 1606.21ZM853.54 1602.25C842.396 1605.03 830.327 1606.87 818.259 1608.72 830.327 1606.87 842.396 1605.03 853.54 1602.25 855.517 1601.9 857.476 1601.53 859.417 1601.13 857.476 1601.55 855.517 1601.92 853.54 1602.27ZM1204.2 1361.31C1206.74 1357.43 1209.23 1353.53 1211.68 1349.61 1209.23 1353.54 1206.74 1357.45 1204.2 1361.33ZM1278.32 1201.2C1277.89 1202.82 1277.44 1204.44 1276.98 1206.07 1275.41 1210.94 1273.8 1215.77 1272.16 1220.58 1273.8 1215.77 1275.41 1210.94 1276.98 1206.07 1277.44 1204.44 1277.89 1202.82 1278.32 1201.2 1279.2 1197.95 1280.02 1194.68 1280.81 1191.4 1280.02 1194.7 1279.2 1197.97 1278.32 1201.22ZM1284.16 1176.44C1283.45 1179.82 1282.72 1183.16 1281.97 1186.46 1282.72 1183.16 1283.45 1179.82 1284.16 1176.44 1284.88 1173.07 1285.57 1169.64 1286.26 1166.17 1285.57 1169.67 1284.88 1173.1 1284.16 1176.46ZM1296.79 1099.63C1296.97 1097.37 1297.11 1095.15 1297.23 1092.97 1297.11 1095.18 1296.97 1097.4 1296.79 1099.63ZM1298.33 1073.31C1298.33 1070.81 1298.33 1068.37 1298.33 1066 1298.34 1068.4 1298.34 1070.84 1298.34 1073.33Z" fill="#DEA53D"/><path d="M1226.26 1013.98 1226.26 1013.84C1225.82 1010.74 1225.6 1007.65 1225.34 1004.38 1225.08 1001.11 1224.88 997.811 1224.41 994.438L1223.03 981.991C1222.57 977.814 1222.1 973.637 1221.63 969.461L1221.63 969.34C1221.14 965.875 1220.4 962.706 1219.7 959.628 1219 956.551 1218.35 953.816 1217.92 950.776L1217.92 950.674 1217.92 950.582C1215.15 935.603 1211.32 921.4 1207.66 907.659L1207.66 907.576 1207.66 907.511 1207.66 907.437C1202.42 889.991 1196.66 871.5 1188.9 854.054 1178.59 829.737 1166.38 806.272 1152.37 783.88 1136.37 758.621 1118.18 734.811 1098.02 712.727L1098.02 712.727 1098.02 712.727C1081.13 694.8 1066.6 680.56 1052.22 667.9L1052.16 667.845 1052.08 667.789C1031.28 650.854 1009.41 635.252 986.624 621.078L986.541 621.022 986.467 620.976C973.632 613.648 960.362 606.08 947.25 599.528L947.148 599.528 947.055 599.482C942.842 597.634 938.341 595.721 933.989 593.882 929.637 592.044 925.201 590.186 921.052 588.338 911.959 584.309 902.571 580.631 894.698 577.998 885.522 574.662 876.568 571.871 864.804 568.665 856.769 566.041 848.602 563.845 840.335 562.085 836.038 561.161 831.723 560.413 827.555 559.72 823.388 559.027 819.322 558.343 815.265 557.446L815.145 557.446 815.025 557.446C809.573 556.522 803.936 555.598 797.403 554.674 794.669 554.191 791.911 553.855 789.142 553.667 786.656 553.454 784.087 553.233 781.601 552.817L781.509 552.817 781.416 552.817C777.443 552.318 773.368 552.087 769.052 551.847 765.171 551.625 761.151 551.394 757.215 550.922L756.975 550.922C748.917 550.451 741.266 550.22 733.494 550.22 725.723 550.22 718.155 550.451 710.143 550.913 701.657 551.008 693.184 551.567 684.759 552.586 679.527 552.742 674.311 553.26 669.151 554.138L666.841 554.471C657.831 555.293 649.598 556.809 640.893 558.417L636.846 559.156 636.763 559.156C623.003 561.928 608.773 564.747 594.699 568.489L594.505 568.544 594.311 568.618C589.293 570.467 584.146 572.074 579.175 573.655 574.203 575.235 568.872 576.935 563.678 578.82 548.413 584.263 536.88 588.883 526.18 593.808 505.545 603.109 485.532 613.73 466.263 625.606 441.291 641.286 417.761 659.154 395.951 678.998 373.481 699.41 353.078 721.987 335.036 746.4 314.38 772.703 296.784 801.272 282.586 831.553 269.384 857.207 259.008 884.218 251.639 912.113 248.587 922.004 246.075 932.054 244.117 942.219L244.117 942.348 244.117 942.542C243.674 946.082 243.008 949.381 242.315 952.873 241.622 956.367 240.892 959.943 240.412 963.787 239.95 966.559 239.488 969.636 239.016 972.593 238.545 975.55 238.092 978.572 237.639 981.316 235.884 991.851 234.96 1002.94 234.072 1013.66L233.878 1016 233.878 1016.17C232.954 1036.78 232.954 1057.21 233.878 1076.89L233.878 1077.11 233.878 1077.33C234.313 1080.4 234.535 1083.48 234.802 1086.73 235.07 1089.99 235.283 1093.4 235.727 1096.81L235.727 1096.86C236.161 1099.46 236.383 1102.07 236.651 1104.84 236.919 1107.6 237.122 1110.57 237.621 1113.53L238.258 1117.75C239.94 1128.74 241.678 1140.12 244.182 1150.95 244.533 1152.45 244.887 1153.96 245.244 1155.48 248.654 1170.04 252.175 1185.1 257.257 1199.58 263.896 1221.16 272.354 1242.13 282.54 1262.27 293.305 1286.24 308.026 1311.05 327.533 1338.12L327.533 1338.12 327.533 1338.12C338.557 1352.81 349.96 1367.99 363.146 1381.19 379.438 1399.49 396.413 1415.05 410.782 1427.85L410.874 1427.94 410.967 1428.01C424.939 1439.16 439.095 1449.54 453.067 1458.85 477.304 1474.68 502.645 1488.74 528.896 1500.94 542.941 1507.37 557.34 1513 572.023 1517.8 579.97 1520.69 587.732 1522.97 595.3 1525.19 597.555 1525.85 599.763 1526.51 601.925 1527.15L602.138 1527.22 602.35 1527.22C607.239 1528.2 612.099 1529.31 616.803 1530.39 625.406 1532.36 634.305 1534.39 643.49 1535.62 646.262 1536.01 649.238 1536.54 652.407 1537.2 656.445 1537.98 660.622 1538.8 664.882 1539.32L665.169 1539.32 665.455 1539.32C667.704 1539.36 669.95 1539.53 672.182 1539.8 674.271 1540.03 676.248 1540.24 678.152 1540.26L680.499 1540.55C686.517 1541.44 692.584 1541.97 698.666 1542.11 709.006 1543.04 718.524 1543.04 728.587 1543.04 742.356 1543.04 756.596 1543.04 770.679 1542.11L770.808 1542.11 770.947 1542.11C774.643 1541.65 778.644 1541.19 782.516 1540.73 786.388 1540.27 790.426 1539.8 794.159 1539.32L794.233 1539.32 813.731 1536.55 813.86 1536.55 813.98 1536.55C818.481 1535.63 823.286 1534.7 827.934 1533.86 832.878 1532.94 837.979 1531.95 842.719 1530.99L842.793 1530.99 842.867 1530.99C859.023 1527.17 874.962 1522.5 890.613 1516.96 898.838 1514.43 907.099 1511.04 915.092 1507.72 919.01 1506.11 923.067 1504.45 927.031 1502.93L927.096 1502.93 927.16 1502.93C944.903 1495.34 962.125 1486.58 978.714 1476.72 997.454 1466.28 1015.33 1454.37 1032.19 1441.1 1044.11 1431.94 1056.47 1422.44 1067.79 1411.16 1083.01 1397.63 1097.11 1382.9 1109.98 1367.11 1119.14 1356.14 1128.63 1344.77 1137.14 1332.49 1147.38 1317.75 1156.77 1302.43 1165.26 1286.61 1174.9 1269.05 1184.34 1249.6 1193.29 1228.72L1193.37 1228.54 1193.42 1228.36 1198.97 1211.72C1201.75 1203.37 1204.52 1195.02 1207.28 1186.66L1207.28 1186.66 1207.28 1186.61C1210.98 1174.72 1213.69 1163.02 1216.67 1149.12L1216.67 1149.05C1218.52 1139.81 1220.37 1129.55 1222.22 1119.59L1222.27 1119.3 1222.27 1119.11 1222.27 1118.93C1222.72 1114.31 1223.19 1109.83 1223.66 1105.5 1224.12 1101.18 1224.58 1096.68 1225.05 1092.03L1225.05 1091.85C1225.98 1077.26 1226.9 1062.18 1226.9 1047.05 1226.9 1035.96 1226.9 1025.52 1225.98 1014.2ZM1219.79 995.02C1220.03 996.647 1220.2 998.264 1220.34 999.89 1220.2 998.264 1220.03 996.647 1219.79 995.02 1219.32 990.855 1218.85 986.682 1218.4 982.499 1218.85 986.664 1219.32 990.837 1219.79 995.02ZM1215.66 962.964C1215.16 960.691 1214.61 958.455 1214.13 956.145 1214.6 958.455 1215.17 960.691 1215.65 962.964ZM1209.81 935.067C1211.07 940.426 1212.24 945.86 1213.29 951.423 1212.24 945.878 1211.07 940.426 1209.81 935.067 1208.97 931.5 1208.1 927.963 1207.21 924.458 1208.1 927.97 1208.96 931.506 1209.8 935.067ZM1182.91 1192.2C1183.78 1189.57 1184.62 1186.91 1185.44 1184.24 1186.36 1181 1187.29 1177.77 1188.06 1174.52 1187.24 1177.75 1186.37 1180.99 1185.44 1184.24 1184.61 1186.91 1183.77 1189.57 1182.91 1192.2ZM1161.3 1246.39C1156.2 1257.52 1150.63 1268.42 1144.59 1279.08 1150.63 1268.42 1156.2 1257.52 1161.3 1246.39 1164.78 1238.73 1168.14 1231.08 1171.31 1223.39 1173.42 1218.25 1175.45 1213.08 1177.4 1207.9 1175.46 1213.09 1173.42 1218.25 1171.31 1223.39 1168.13 1231.08 1164.78 1238.73 1161.29 1246.39ZM1062.7 1385.26C1059.11 1388.77 1055.45 1392.26 1051.73 1395.72 1047.79 1399.42 1043.73 1403.07 1039.57 1406.68 1035.41 1410.3 1031.19 1413.83 1026.89 1417.29 1022.58 1420.77 1018.25 1424.19 1013.87 1427.55 1018.25 1424.19 1022.6 1420.77 1026.89 1417.29 1031.19 1413.82 1035.42 1410.28 1039.57 1406.68 1043.72 1403.09 1047.77 1399.44 1051.73 1395.72 1055.43 1392.24 1059.13 1388.77 1062.7 1385.26 1066.28 1381.76 1069.84 1378.21 1073.32 1374.62 1069.84 1378.21 1066.3 1381.76 1062.7 1385.26ZM330.351 1302.93C325.996 1295.97 321.81 1288.95 317.793 1281.86 312.433 1272.4 307.379 1262.81 302.629 1253.09 307.379 1262.82 312.433 1272.4 317.793 1281.86 321.815 1288.94 326.001 1295.97 330.351 1302.93 331.977 1305.48 333.632 1308.02 335.313 1310.54 338.677 1315.58 342.158 1320.56 345.755 1325.49 342.163 1320.57 338.683 1315.58 335.313 1310.54 333.632 1308.05 331.977 1305.51 330.351 1302.93ZM272.264 1173.34C273.306 1177.28 274.408 1181.22 275.572 1185.17 277.199 1190.39 278.911 1195.56 280.71 1200.69 283.408 1208.39 286.294 1216 289.369 1223.51 291.408 1228.52 293.536 1233.49 295.754 1238.43 293.548 1233.5 291.42 1228.53 289.369 1223.51 286.289 1215.99 283.402 1208.38 280.71 1200.69 278.911 1195.56 277.199 1190.38 275.572 1185.17 274.42 1181.23 273.318 1177.29 272.264 1173.34ZM1121.27 1307.78C1109.44 1324.96 1099.79 1337.71 1090.01 1349.11L1090.01 1349.11 1090.01 1349.11C1078.86 1362.66 1066.48 1375.57 1048.64 1392.28 1034.91 1405.21 1018.83 1418.33 998.064 1433.62 977.781 1447.27 956.599 1459.54 934.664 1470.33 918.537 1478.01 901.981 1484.75 885.078 1490.51 874.341 1494.09 862.494 1497.74 851.036 1501.26L849.973 1501.59C844.632 1503.05 838.81 1504.23 832.637 1505.48 827.416 1506.55 822.029 1507.65 816.827 1508.94 812.345 1509.86 807.484 1510.53 802.799 1511.2 798.114 1511.86 792.995 1512.69 788.254 1513.62 772.154 1515.45 755.964 1516.38 739.759 1516.39L704.737 1516.39C695.561 1515.46 687.18 1514.54 679.02 1513.62L678.762 1513.62 678.512 1513.62C676.839 1513.57 675.169 1513.43 673.513 1513.18 671.577 1512.9 669.627 1512.74 667.673 1512.68 652.623 1510.73 637.688 1507.99 622.93 1504.46 594.849 1497.92 567.46 1488.69 541.14 1476.92L541.14 1476.92 541.14 1476.92C514.278 1465.42 489.938 1451.15 467.631 1437.45 449.445 1424.06 432.895 1411.13 417.038 1397.93 403.462 1385.45 390.566 1372.24 378.403 1358.37L378.403 1358.37 378.403 1358.37C362.13 1340.35 347.38 1321 334.306 1300.54 310.28 1262.19 292.547 1224.01 280.054 1183.89 275.514 1168.52 271.836 1152.91 269.039 1137.12 268.743 1135.52 268.457 1133.96 268.18 1132.42 266.655 1124.16 265.214 1116.36 264.484 1108.71L264.484 1108.56 264.484 1108.41C262.635 1097.47 261.711 1087.21 260.787 1077.27 259.863 1063.53 259.863 1050.43 259.863 1037.75 259.863 1034.47 259.863 1031.08 260.556 1029.01L260.787 1028.3 260.787 1027.55C260.787 1017.38 261.591 1007.92 262.432 997.866L262.626 995.538C263.394 987.316 264.604 979.142 266.249 971.05L266.249 970.958 266.249 970.874C267.173 965.773 268.097 960.82 269.021 956.025 269.945 951.229 270.869 946.396 271.793 941.341 272.329 939.188 272.865 937.017 273.41 934.808 275.674 925.567 278.03 916.086 280.95 906.559 288.731 884.197 297.094 863.128 305.799 844.028 316.342 822.959 330.878 795.597 349.867 770.629L349.867 770.629 349.867 770.583C361.733 754.161 374.635 738.512 388.493 723.732 400.434 710.892 413.304 698.948 426.999 687.999L427.073 687.943 427.147 687.879C448.345 669.331 471.417 653.04 495.99 639.273 514.459 628.975 533.511 619.762 553.051 611.68L553.153 611.68 553.245 611.68C565.329 606.123 577.822 601.504 590.615 597.865L597.832 595.925C609.133 592.875 619.806 590.001 631.098 587.737L631.209 587.737 631.311 587.737C642.224 585.011 653.396 583.117 664.208 581.343L694.637 578.571C706.4 577.647 718.57 576.722 732.321 576.722 738.963 576.583 745.607 576.855 752.216 577.536L752.493 577.536 752.779 577.536C755.884 577.536 759.34 577.767 762.685 577.998 766.031 578.229 769.653 578.46 772.998 578.469 782.876 579.393 793.078 580.317 803.021 582.101L803.16 582.101C813.112 583.949 823.397 585.797 832.591 587.645 843.431 590.14 855.028 592.977 866.449 596.784L866.504 596.784 866.551 596.784C878.323 600.406 890.466 604.177 901.397 608.686 914.103 614.129 927.206 619.775 939.164 625.245 955.483 634.31 972.338 643.671 988.879 653.762 1004.97 664.758 1021.05 677.03 1039.46 692.351 1068.74 717.728 1094.67 746.723 1116.63 778.641 1132.44 801.816 1144.46 822.534 1153.38 841.958L1153.38 841.958 1153.38 841.958C1165.34 866.527 1175.2 892.067 1182.83 918.304L1184.68 925.595C1187.77 937.802 1190.69 949.325 1193 961.551L1193 961.606C1195 971.184 1196.52 980.86 1197.52 990.594 1197.63 996.874 1198.25 1003.13 1199.37 1009.32L1199.37 1012.95C1200.2 1025.45 1201.22 1041.01 1200.3 1055.01L1200.3 1055.28C1200.3 1066.31 1199.37 1077.46 1198.45 1088.24 1197.97 1093.11 1197.48 1097.98 1196.99 1102.85L1195.69 1115.84C1194.76 1120.87 1193.84 1125.75 1192.91 1130.47 1191.99 1135.19 1191.06 1140.15 1190.14 1145.26 1189.61 1147.56 1189.08 1149.89 1188.54 1152.25 1186.26 1162.24 1183.92 1172.58 1180.95 1182.9 1175.29 1201.48 1167.7 1221.03 1157.04 1244.44 1146.91 1266.52 1134.96 1287.71 1121.27 1307.78ZM265.823 947.8C266.295 945.342 266.747 942.847 267.219 940.297 267.912 937.525 268.614 934.669 269.326 931.786 268.614 934.669 267.912 937.516 267.219 940.297 266.757 942.847 266.295 945.315 265.823 947.8ZM997.962 654.538C1006.68 660.683 1015.19 667.059 1023.61 673.666 1015.19 667.059 1006.68 660.702 997.962 654.538ZM1190.06 928.062C1190.98 931.685 1191.91 935.279 1192.74 938.874 1191.87 935.307 1190.97 931.712 1190.06 928.09ZM1194.02 944.27C1194.86 947.874 1195.66 951.487 1196.42 955.147 1195.66 951.515 1194.84 947.902 1194.02 944.298ZM1203.07 1088.67C1203.3 1085.9 1203.53 1083.12 1203.75 1080.36 1203.53 1083.14 1203.3 1085.91 1203.07 1088.67 1202.14 1097.95 1201.22 1107.23 1200.3 1116.5 1201.21 1107.25 1202.14 1097.99 1203.07 1088.7ZM1200.75 978.923C1200.19 975.153 1199.55 971.42 1198.9 967.834 1198.46 965.413 1197.98 963.038 1197.52 960.719 1197.99 963.038 1198.45 965.413 1198.9 967.834 1199.55 971.447 1200.19 975.181 1200.75 978.951ZM922.605 612.844C917.818 610.756 912.967 608.667 908.097 606.579 912.967 608.667 917.818 610.756 922.605 612.844 925.802 614.23 928.959 615.619 932.076 617.012 928.941 615.644 925.771 614.265 922.568 612.872ZM838.08 584.198C845.473 585.945 852.579 587.737 859.574 589.807 852.542 587.774 845.445 585.982 838.043 584.235ZM620 585.399C616.6 586.194 613.236 587.035 609.835 587.904 613.171 587.072 616.535 586.231 619.935 585.436ZM424.172 684.293C420.691 687.077 417.266 689.918 413.896 692.813 417.26 689.911 420.685 687.072 424.172 684.293 433.517 676.173 443.214 668.439 453.261 661.09 443.177 668.421 433.48 676.155 424.172 684.293ZM374.9 731.772C366.473 741.333 358.409 751.26 350.708 761.555 358.397 751.26 366.445 741.333 374.854 731.772 378.224 727.946 381.649 724.179 385.13 720.47 381.649 724.179 378.224 727.946 374.854 731.772ZM263.735 958.797C263.273 961.236 262.811 963.694 262.349 966.189 262.118 967.446 261.878 968.703 261.647 969.978 261.416 971.022 261.203 972.066 260.991 973.111 261.203 972.066 261.416 971.022 261.647 969.978 261.878 968.703 262.118 967.446 262.349 966.189 262.811 963.694 263.273 961.236 263.735 958.797ZM260.418 976.234C260.06 978.322 259.752 980.411 259.494 982.499 259.752 980.411 260.06 978.322 260.418 976.234ZM255.15 1037.68 255.15 1037.68ZM255.15 1034.91C255.15 1033.99 255.15 1033.06 255.252 1032.23 255.206 1033.1 255.178 1034.03 255.169 1034.95ZM257.156 1089.09C256.888 1086.51 256.647 1083.95 256.407 1081.39 256.666 1083.92 256.915 1086.52 257.174 1089.1ZM256.638 1011.25C256.814 1008.58 257.017 1005.92 257.239 1003.22 257.036 1005.92 256.832 1008.59 256.657 1011.26ZM260.177 1112.57C260.473 1114.89 260.806 1117.19 261.175 1119.58 260.806 1117.24 260.473 1114.91 260.177 1112.57ZM374.919 1361.4C379.447 1366.62 384.095 1371.71 388.891 1376.72 384.095 1371.71 379.447 1366.62 374.919 1361.4 370.742 1356.77 366.679 1352.07 362.73 1347.31 366.679 1352.07 370.742 1356.77 374.919 1361.4ZM458.399 1436.25C454.044 1433 449.731 1429.74 445.462 1426.47 449.75 1429.78 454.05 1433.06 458.362 1436.3ZM478.562 1449.37C475.538 1447.55 472.516 1445.73 469.497 1443.9 472.547 1445.77 475.568 1447.61 478.562 1449.41ZM501.414 1462.46C496.806 1459.94 492.223 1457.35 487.664 1454.71 492.223 1457.38 496.806 1459.98 501.414 1462.51ZM520.071 1472.17C523.213 1473.72 526.392 1475.24 529.58 1476.71 526.392 1475.24 523.213 1473.72 520.071 1472.17 515.352 1469.84 510.674 1467.44 506.035 1464.95 510.674 1467.47 515.352 1469.89 520.071 1472.22ZM539.246 1481.02C542.609 1482.52 545.998 1483.99 549.411 1485.4 546.022 1483.99 542.634 1482.52 539.246 1481.02 537.62 1480.32 536.002 1479.61 534.395 1478.9 535.984 1479.66 537.62 1480.35 539.246 1481.06ZM644.968 1513.71C652.518 1515.1 659.938 1516.26 667.368 1517.18 671.064 1517.18 674.76 1518.11 678.512 1518.11 686.829 1519.03 695.219 1519.96 704.506 1520.88L739.787 1520.88C756.228 1520.88 772.656 1519.96 788.994 1518.11 798.281 1516.26 808.492 1515.34 817.778 1513.49 819.164 1513.14 820.551 1512.8 821.992 1512.48 820.569 1512.8 819.164 1513.14 817.778 1513.49 808.492 1515.34 798.281 1516.26 788.994 1518.11 772.656 1519.96 756.228 1520.88 739.787 1520.88L704.506 1520.88C695.266 1519.96 686.866 1519.03 678.512 1518.11 674.816 1518.11 671.12 1517.18 667.368 1517.18 659.975 1516.26 652.518 1515.1 644.968 1513.71 641.198 1513.02 637.394 1512.27 633.556 1511.44 637.4 1512.28 641.205 1513.04 644.968 1513.75ZM911.895 1485.41C916.127 1483.68 920.331 1481.88 924.471 1480.05 920.331 1481.93 916.127 1483.72 911.895 1485.46ZM1088.59 1357.89C1085.29 1361.73 1081.92 1365.47 1078.5 1369.12 1081.92 1365.51 1085.28 1361.78 1088.58 1357.96ZM1194.71 1146.15C1195.18 1143.6 1195.64 1141.11 1196.11 1138.64 1195.64 1141.11 1195.19 1143.6 1194.71 1146.15 1194.01 1149.16 1193.32 1152.23 1192.61 1155.39 1193.32 1152.31 1194.01 1149.23 1194.71 1146.22ZM1204.93 1055.28C1204.93 1056.67 1204.93 1058.05 1204.93 1059.46 1204.93 1058.06 1204.93 1056.68 1204.93 1055.28 1205.16 1051.79 1205.28 1048.27 1205.3 1044.7 1205.28 1048.3 1205.16 1051.84 1204.93 1055.28ZM1142.25 776.94C1130.93 759.922 1118.58 743.604 1105.28 728.076 1118.58 743.616 1130.93 759.946 1142.25 776.977ZM935.255 599.381C929.711 597.061 924.166 594.76 918.955 592.422 924.194 594.779 929.775 597.098 935.274 599.418ZM733.291 554.665C739.029 554.665 744.777 554.794 750.617 555.053 744.777 554.794 739.029 554.665 733.291 554.665 727.552 554.665 721.795 554.794 715.955 555.053 721.795 554.794 727.543 554.665 733.291 554.665ZM528.148 598.031C531.169 596.636 534.191 595.259 537.222 594.012 540.253 592.764 543.293 591.48 546.37 590.26 543.293 591.48 540.253 592.727 537.222 594.012 534.191 595.296 531.169 596.636 528.157 598.031 523.05 600.348 517.995 602.729 512.993 605.175 517.971 602.723 523.007 600.342 528.102 598.031ZM252.064 927.924C251.426 930.409 250.817 932.932 250.216 935.473 250.77 932.904 251.371 930.382 252.018 927.896ZM244.903 964.415C245.013 963.491 245.143 962.567 245.291 961.643 245.143 962.549 245.013 963.473 244.903 964.415 244.782 965.108 244.672 965.82 244.551 966.54 244.708 965.82 244.819 965.108 244.903 964.415ZM240.282 1096.12C240.051 1094.51 239.876 1092.88 239.737 1091.25 239.876 1092.88 240.051 1094.5 240.282 1096.12 240.522 1097.51 240.689 1098.89 240.837 1100.3 240.698 1098.9 240.532 1097.52 240.282 1096.12ZM261.637 1198.16C264.102 1206.17 266.8 1214.05 269.732 1221.81 266.784 1214.02 264.086 1206.16 261.647 1198.16ZM530.883 1496.83C527.63 1495.32 524.396 1493.79 521.18 1492.21 524.396 1493.78 527.63 1495.32 530.883 1496.83 534.367 1498.45 537.906 1500.01 541.473 1501.52 537.915 1500.01 534.376 1498.45 530.892 1496.83ZM603.302 1522.8 599.772 1521.76 603.302 1522.8C617.228 1525.57 630.22 1529.27 644.146 1531.12 630.239 1529.33 617.237 1525.63 603.311 1522.8ZM841.906 1526.5C834.938 1527.89 827.453 1529.27 820.227 1530.67 827.453 1529.28 834.938 1527.9 841.906 1526.5 845.849 1525.57 849.795 1524.58 853.743 1523.54 849.807 1524.59 845.864 1525.6 841.915 1526.55ZM983.445 1468.79C992.612 1463.46 1001.55 1457.7 1010.24 1451.62 1001.56 1457.71 992.621 1463.47 983.454 1468.8Z" fill="#DEA53D"/><path d="M934.701 835.923C933.101 834.922 931.247 834.402 929.36 834.427 928.304 834.148 927.217 834.008 926.125 834.011 925.175 834.024 924.227 834.1 923.288 834.242 922.612 834.343 921.93 834.402 921.246 834.417L528.591 834.417C527.396 834.445 526.227 834.762 525.182 835.341L524.405 835.341 523.241 836.118C519.351 838.76 517.503 842.041 517.503 846.439L517.503 1247.48C517.503 1251.28 518.944 1256.14 525.625 1258.2 527.39 1259.18 529.395 1259.64 531.41 1259.53L930.053 1259.53 930.505 1259.44C938.064 1257.9 942.574 1252.74 942.574 1245.64L942.574 845.728 942.333 845.016C940.883 840.664 938.129 837.402 934.701 835.923ZM926.726 838.696C927.005 838.716 927.283 838.753 927.558 838.807 927.283 838.753 927.005 838.716 926.726 838.696 926.479 838.682 926.232 838.682 925.987 838.696L926.125 838.696C926.329 838.64 926.523 838.64 926.726 838.659ZM928.713 839.047C928.41 838.95 928.101 838.872 927.789 838.816 928.101 838.872 928.41 838.95 928.713 839.047ZM923.75 838.853 922.891 838.954ZM922.503 838.991C922.115 839.028 921.708 839.047 921.283 839.047 921.683 839.047 922.078 839.028 922.466 838.991ZM543.487 1232.64 543.487 861.308 543.672 861.308 544.642 860.818C545.457 860.48 546.339 860.331 547.221 860.384L911.969 860.384C912.532 860.437 913.09 860.546 913.632 860.707 914.242 860.855 914.935 861.03 915.693 861.151L915.693 1232.63 543.45 1232.63ZM526.882 839.684 527.575 839.343C527.795 839.231 528.028 839.148 528.268 839.093 528.028 839.148 527.795 839.231 527.575 839.343L526.882 839.684C526.658 839.796 526.423 839.883 526.18 839.943 526.423 839.883 526.658 839.796 526.882 839.684ZM527.667 1253.95C526.447 1253.69 525.292 1253.18 524.267 1252.47 523.703 1252.04 523.232 1251.51 522.881 1250.89 523.232 1251.51 523.703 1252.04 524.267 1252.47 525.292 1253.18 526.447 1253.69 527.667 1253.95 527.908 1254.19 528.194 1254.37 528.508 1254.49 528.194 1254.37 527.908 1254.19 527.667 1253.95Z" fill="#DEA53D"/><path d="M1059.24 968.416 1059.24 968.416C1056.36 968.451 1053.59 969.509 1051.42 971.401L1051.25 971.53 1051.11 971.678C1048.75 974.053 1046.07 976.751 1046.07 980.522L1046.07 1114.74 1046.13 1115.12C1047.36 1121.44 1052.88 1126.01 1059.31 1126.06 1061.88 1126.08 1064.38 1125.24 1066.4 1123.66 1069.49 1121.58 1071.71 1118.45 1072.67 1114.86L1072.9 1114.16 1072.9 983.275C1072.99 981.58 1072.54 979.9 1071.65 978.461 1070.1 972.722 1064.86 968.416 1059.24 968.416ZM1067.18 979.866 1067.18 979.681ZM1066.97 979.145C1066.97 979.105 1066.97 979.064 1066.97 979.025 1066.97 979.055 1066.97 979.087 1066.97 979.117ZM1066.69 978.406 1066.62 978.258ZM1066.39 977.777 1066.31 977.62ZM1065.96 977.047 1065.9 976.945ZM1065.58 976.493 1065.47 976.336ZM1065.06 975.846 1065.06 975.846ZM1064.57 975.347 1064.44 975.217ZM1059.34 973.046 1059.34 973.046ZM1064.03 974.894 1063.92 974.802ZM1063.4 974.414 1063.27 974.33ZM1062.82 974.053 1062.7 973.961ZM1062.09 973.684 1062 973.684ZM1061.48 973.453C1061.43 973.428 1061.37 973.41 1061.31 973.397 1061.36 973.391 1061.43 973.391 1061.48 973.397ZM1060.73 973.231 1060.73 973.231ZM1060.04 973.12 1059.87 973.12ZM1058.72 973.12 1058.72 973.12ZM1058.05 973.203 1057.9 973.203ZM1057.48 973.332 1057.27 973.388ZM1056.91 973.508 1056.68 973.6ZM1056.33 973.748 1056.1 973.859ZM1055.74 974.053 1055.52 974.182ZM1055.13 974.432 1054.95 974.561ZM1050.91 1115.36C1050.82 1115.06 1050.75 1114.75 1050.69 1114.44 1050.75 1114.72 1050.82 1115 1050.91 1115.28ZM1050.99 1115.62C1051.08 1115.85 1051.16 1116.07 1051.26 1116.29 1051.16 1115.99 1051.08 1115.77 1050.99 1115.54ZM1051.35 1116.5C1051.49 1116.78 1051.64 1117.05 1051.81 1117.31 1051.64 1117.02 1051.48 1116.72 1051.35 1116.42ZM1051.92 1117.47C1052.06 1117.68 1052.21 1117.88 1052.36 1118.08 1052.21 1117.86 1052.06 1117.62 1051.92 1117.39ZM1052.54 1118.29C1052.72 1118.5 1052.91 1118.71 1053.11 1118.9 1052.91 1118.62 1052.72 1118.42 1052.54 1118.21ZM1053.18 1118.97C1053.42 1119.19 1053.65 1119.39 1053.9 1119.58 1053.65 1119.31 1053.46 1119.1 1053.18 1118.89ZM1054.71 1120.15C1054.51 1120.02 1054.3 1119.88 1054.11 1119.73 1054.3 1119.8 1054.51 1119.96 1054.71 1120.07ZM1058.91 1121.51C1059.18 1121.52 1059.45 1121.52 1059.72 1121.51L1059.31 1121.51ZM1054.92 1120.28C1055.19 1120.43 1055.47 1120.58 1055.74 1120.71 1055.47 1120.5 1055.19 1120.35 1054.92 1120.19ZM1055.85 1120.77C1056.1 1120.87 1056.34 1120.97 1056.59 1121.05 1056.37 1120.89 1056.12 1120.79 1055.87 1120.68ZM1056.84 1121.14C1057.09 1121.21 1057.34 1121.28 1057.59 1121.33 1057.36 1121.22 1057.12 1121.13 1056.87 1121.05ZM1057.77 1121.37C1058.07 1121.43 1058.38 1121.47 1058.69 1121.5 1058.39 1121.45 1058.08 1121.37 1057.79 1121.28ZM1062.78 1120.59C1063.06 1120.42 1063.35 1120.24 1063.61 1120.03 1063.35 1120.21 1063.07 1120.37 1062.79 1120.51ZM1059.8 1121.52C1060.1 1121.52 1060.39 1121.45 1060.72 1121.4 1060.41 1121.36 1060.12 1121.4 1059.82 1121.42ZM1060.84 1121.36C1061.13 1121.3 1061.42 1121.21 1061.7 1121.11 1061.42 1121.18 1061.14 1121.23 1060.85 1121.27ZM1061.84 1121.05C1062.13 1120.95 1062.41 1120.82 1062.67 1120.67 1062.41 1120.78 1062.14 1120.88 1061.86 1120.96Z" fill="#DEA53D"/><path d="M651.76 722.383 651.991 722.845C653.784 726.403 656.612 730.46 662.507 730.894 664.634 731.631 666.885 731.946 669.133 731.818L795.591 731.818C796.724 731.767 797.842 731.532 798.9 731.125L799.611 730.894 800.702 730.894 801.857 730.127C808.778 725.507 809.138 720.406 808.565 717.421 808.381 712.209 805.497 707.912 801.09 706.332 799.391 705.457 797.502 705.019 795.591 705.057L665.418 705.057C663.096 704.914 660.778 705.399 658.709 706.462 653.138 709.419 650.24 715.743 651.64 721.894Z" fill="#DEA53D"/><path d="M399.906 968.416 399.906 968.416C397.777 968.416 395.674 968.89 393.751 969.802L393.086 970.117 392.55 970.625C390.425 972.639 387.209 975.689 387.209 981.372L387.209 1114.1 387.366 1114.68C388.937 1120.66 393.835 1124.42 400.192 1124.57 400.821 1124.67 401.458 1124.72 402.096 1124.72 408.669 1124.73 414.003 1119.41 414.01 1112.83 414.01 1112.74 414.009 1112.66 414.007 1112.57L414.007 980.023 413.933 979.625C412.806 973.221 406.781 968.416 399.906 968.416ZM407.548 976.576C407.391 976.391 407.234 976.215 407.067 976.049 407.234 976.197 407.391 976.373 407.538 976.557ZM406.855 975.837C406.679 975.661 406.494 975.504 406.309 975.347 406.494 975.485 406.679 975.643 406.855 975.809ZM406.134 975.199C405.882 975.002 405.623 974.817 405.358 974.645 405.628 974.804 405.887 974.984 406.134 975.181ZM405.21 974.543C404.988 974.404 404.766 974.284 404.535 974.164 404.766 974.266 404.96 974.386 405.182 974.524ZM404.286 974.025 403.62 973.739ZM403.362 973.647C403.048 973.536 402.743 973.434 402.438 973.351 402.706 973.416 403.011 973.517 403.325 973.628ZM402.317 973.332C402.031 973.258 401.745 973.203 401.449 973.157 401.708 973.185 401.994 973.24 402.281 973.314ZM401.144 973.12 400.423 973.055ZM400.118 973.046C399.906 973.046 399.693 973.046 399.481 973.046L399.943 973.046ZM396.838 973.545C396.473 973.67 396.115 973.815 395.766 973.979 396.102 973.809 396.448 973.659 396.801 973.526ZM399.019 973.083 398.362 973.185ZM397.928 973.249 397.207 973.443ZM401.745 1120.1 402.29 1120.1 402.133 1120.1ZM400.608 1119.96C400.886 1120.02 401.166 1120.05 401.449 1120.07 401.166 1120.05 400.886 1120.02 400.608 1119.96ZM406.956 1118.22C407.086 1118.1 407.224 1117.97 407.344 1117.84 407.224 1117.97 407.086 1118.12 406.956 1118.22ZM402.595 1120.07 403.066 1120.07ZM403.399 1119.96 403.851 1119.87ZM404.166 1119.79 404.6 1119.64ZM404.886 1119.53 405.33 1119.33ZM405.579 1119.2 406.069 1118.9ZM406.217 1118.81C406.42 1118.66 406.624 1118.5 406.808 1118.35 406.614 1118.52 406.42 1118.68 406.217 1118.83ZM409.34 1113.37C409.369 1113.1 409.385 1112.84 409.387 1112.57 409.4 1112.84 409.4 1113.11 409.387 1113.38ZM407.492 1117.61 407.797 1117.25ZM407.973 1116.99 408.222 1116.62ZM408.379 1116.34 408.583 1115.94ZM408.721 1115.65 408.888 1115.22ZM408.989 1114.92C409.035 1114.76 409.072 1114.61 409.109 1114.46 409.109 1114.63 409.072 1114.78 409.026 1114.94ZM409.183 1114.15C409.22 1113.98 409.249 1113.8 409.266 1113.62 409.262 1113.81 409.246 1113.99 409.22 1114.17ZM409.165 979.505C409.248 979.81 409.331 980.115 409.387 980.429 409.331 980.115 409.248 979.81 409.165 979.505ZM407.705 976.733C407.9 976.976 408.082 977.228 408.25 977.491 408.082 977.228 407.9 976.976 407.705 976.733ZM408.324 977.657C408.463 977.879 408.583 978.11 408.703 978.35 408.583 978.101 408.463 977.87 408.324 977.657ZM408.823 978.581C408.915 978.784 408.998 978.997 409.072 979.209 408.998 979.025 408.915 978.812 408.823 978.581Z" fill="#DEA53D"/><path d="M794.723 1362.99 665.353 1362.99C663.446 1362.96 661.559 1363.39 659.864 1364.27 654.932 1366.05 651.604 1370.68 651.492 1375.93 651.492 1381.79 654.634 1386.65 659.421 1388.39 661.408 1389.79 663.487 1389.79 665.353 1389.79L794.723 1389.79C796.673 1389.83 798.6 1389.38 800.323 1388.46 804.067 1386.72 806.739 1383.28 807.494 1379.22 808.377 1375.39 807.373 1371.37 804.795 1368.42 802.217 1364.71 799.011 1362.99 794.723 1362.99Z" fill="#DEA53D"/><path d="M596.972 1193.89 863.104 1193.89C868.556 1193.89 873.084 1190.97 874.766 1186.42 875.638 1184.73 876.076 1182.85 876.041 1180.95L876.041 912.972C876.041 906.337 871.716 903.316 867.946 901.421L867.022 900.932 866.237 900.932 865.534 900.71C864.461 900.299 863.328 900.071 862.18 900.035L595.586 900.035 595.143 900.128C589.002 901.13 584.193 905.951 583.204 912.094L583.111 912.547 583.111 1181.3 583.176 1181.68C584.405 1189.09 589.82 1193.89 596.972 1193.89ZM843.698 1167.04 609.909 1167.04 609.909 927.822 609.974 927.822 610.898 926.898 849.141 926.898 849.243 927 849.243 1167.04 843.698 1167.04Z" fill="#DEA53D"/></g></g></g></g></svg>